<?xml version="1.0" encoding="UTF-8" standalone="no"?>
<svg
   width="55.5139in"
   height="13.8889in"
   viewBox="0 0 3997 1000"
   version="1.1"
   id="svg103451"
   sodipodi:docname="pyspec_path2.svg"
   inkscape:version="1.2.2 (b0a8486541, 2022-12-01)"
   xmlns:inkscape="http://www.inkscape.org/namespaces/inkscape"
   xmlns:sodipodi="http://sodipodi.sourceforge.net/DTD/sodipodi-0.dtd"
   xmlns="http://www.w3.org/2000/svg"
   xmlns:svg="http://www.w3.org/2000/svg">
  <defs
     id="defs103455" />
  <sodipodi:namedview
     id="namedview103453"
     pagecolor="#ffffff"
     bordercolor="#666666"
     borderopacity="1.0"
     inkscape:showpageshadow="2"
     inkscape:pageopacity="0.0"
     inkscape:pagecheckerboard="0"
     inkscape:deskcolor="#d1d1d1"
     inkscape:document-units="in"
     showgrid="false"
     inkscape:zoom="0.20678004"
     inkscape:cx="1593.4807"
     inkscape:cy="788.27724"
     inkscape:window-width="1234"
     inkscape:window-height="691"
     inkscape:window-x="0"
     inkscape:window-y="0"
     inkscape:window-maximized="1"
     inkscape:current-layer="svg103451" />
  <path
     style="fill:none;stroke:#000000"
     d="m 696.67578,642.03711 c -0.97757,2.85383 -2.83532,5.77145 -4.22656,8.61133 -19.18295,35.97216 -44.20407,68.35611 -69.41021,100.24157 -30.71021,38.39481 -63.87265,74.8372 -99.23457,108.99669 -19.82752,19.07102 -40.31053,37.48538 -61.66139,54.83665 -24.8495,18.49864 -53.92757,32.06505 -84.79419,36.20392 -3.04566,-0.34976 -3.39316,-4.1318 -3.35081,-6.56985 0.0681,-8.40451 5.13841,-15.56256 9.31522,-22.4767 13.27054,-20.2103 31.60955,-36.32342 46.28884,-55.42637 25.69683,-31.59552 51.52021,-63.28098 81.1297,-91.34887 51.89847,-51.05293 110.0537,-96.74576 175.89639,-128.44174 3.33636,-1.54851 6.66817,-3.27304 10.04758,-4.62663 z"
     id="path118186" />
  <path
     style="fill:none;stroke:#000000"
     d="M 331.08008,545.73438 C 300.48407,607.20371 202.05435,736.02472 132.37493,809.02972 62.695511,882.03471 2.8551777,973.29918 -42.42619,936.51098 -82.425943,890.47124 8.2213677,790.83788 102.06766,738.3977 195.91395,685.95752 241.11268,582.10728 331.08008,545.73438 Z"
     id="path118184"
     sodipodi:nodetypes="czczc" />
  <path
     style="fill:none;stroke:#000000"
     d="m 1348.5742,527.08594 c -1.1054,6.50443 -6.7425,10.7645 -9.4902,16.50149 -13.485,21.60193 -27.641,42.77578 -41.7194,63.99291 -51.2171,76.47835 -106.0818,151.01603 -170.4029,217.08867 -34.0653,34.67549 -69.7741,68.18356 -110.2508,95.33122 -14.2438,9.26548 -29.95098,17.14196 -46.96898,19.41859 -6.16318,1.06729 -11.80819,-3.78701 -13.95676,-9.25085 -1.65398,-3.87043 -1.47368,-8.29389 0.044,-12.16338 3.07196,-14.69551 12.47511,-26.8665 21.50715,-38.44237 37.90213,-50.09032 79.06903,-97.88862 125.11973,-140.69082 70.0011,-66.96462 144.5288,-128.99303 214.6296,-195.84984 8.8821,-7.81755 19.4304,-14.56094 31.3968,-16.06453 z"
     id="path118182" />
  <path
     style="fill:none;stroke:#000000"
     d="m 1007.3574,509.17969 c 32.7468,23.31578 71.1747,37.35259 110.1836,46.02539 16.9103,3.96534 34.1628,6.37655 50.9727,10.76953 3.187,0.77675 4.5381,4.79519 2.7527,7.46326 -4.8687,10.38169 -12.9168,19.03492 -22.3836,25.40916 -16.6863,11.1511 -36.6526,17.08317 -56.6475,17.86266 -18.2433,0.62317 -36.9207,-3.10939 -52.7043,-12.53239 -21.7476,-12.65537 -38.7229,-34.41325 -43.2185,-59.4273 -1.69348,-9.65369 -1.55639,-20.16794 3.10156,-29.01367 1.78174,-2.89864 4.45764,-6.02879 7.94334,-6.55664 z"
     id="path118180" />
  <path
     style="fill:none;stroke:#000000"
     d="m 2103.5859,497.54492 c 11.449,4.2543 18.3114,16.6435 18.2225,28.52155 0.4641,19.71224 -11.8747,38.6624 -29.3028,47.46218 -5.9323,2.84689 -12.93,4.71015 -19.4079,2.75988 -8.5611,-3.87285 -11.7725,-15.23471 -7.9488,-23.50905 3.255,-9.37769 5.8369,-18.99502 9.4772,-28.23343 4.2431,-10.10382 10.6523,-20.13366 20.7172,-25.20663 2.5739,-1.18037 5.4005,-1.8761 8.2426,-1.7945 z"
     id="path118178" />
  <path
     style="fill:none;stroke:#000000"
     d="m 1465.7871,479.60352 c 20.4167,0.54455 38.094,19.85911 37.0605,40.21259 -0.6091,12.19521 -6.3422,23.32642 -12.0461,33.85306 -17.7377,29.60665 -52.2533,48.78702 -86.891,46.72619 -10.9384,-0.64295 -22.6625,-2.76719 -30.9795,-10.47179 -10.8191,-10.36118 -12.2153,-28.38187 -4.3195,-40.86774 10.5682,-20.64657 24.1193,-40.46517 43.0447,-54.30264 15.7083,-10.91203 35.1693,-15.54079 54.1309,-15.14967 z"
     id="path118176" />
  <path
     style="fill:none;stroke:#000000"
     d="m 990.39258,478.40234 c 5.38307,1.06295 6.89863,8.58274 3.53264,12.43992 -2.09055,3.93367 -9.03901,4.31173 -10.70017,-0.1998 -2.537,-4.97499 1.19578,-12.56311 7.16753,-12.24012 z"
     id="path118174" />
  <path
     style="fill:none;stroke:#000000"
     d="m 1663.5078,478.35938 c 0.4763,0.72661 -0.1581,2.24431 -0.1997,3.27179 -3.0887,18.4761 -15.2139,34.41453 -30.2663,45.06519 -6.8004,4.87272 -14.4001,8.86737 -22.6512,10.55169 -3.6621,-1.20387 -3.7155,-5.98361 -2.4221,-8.96799 2.4447,-8.11305 9.9488,-12.89993 15.6714,-18.56777 11.9902,-11.52787 23.1783,-24.97411 39.0479,-31.25394 0.2655,-0.0768 0.5435,-0.11705 0.82,-0.099 z"
     id="path118172" />
  <path
     style="fill:none;stroke:#000000"
     d="m 3059.4082,468.71875 c 3.1729,0.58654 4.6063,4.07608 5.7539,6.73828 3.2203,8.03922 0.06,17.26073 -5.3684,23.55815 -7.8306,10.27609 -17.7673,18.65973 -26.2842,28.33014 -10.3312,10.81769 -19.7695,22.45584 -28.9368,34.25384 -6.7273,5.58338 -16.7707,8.26641 -24.8793,4.12154 -5.5354,-3.9988 -6.5298,-11.44504 -6.2505,-17.79191 0.4258,-13.91239 7.9115,-26.46182 16.835,-36.69382 16.7899,-20.53439 39.7136,-37.21793 66.1459,-42.24278 0.9926,-0.10931 1.9812,-0.32215 2.9844,-0.27344 z"
     id="path118170" />
  <path
     style="fill:none;stroke:#000000"
     d="m 507.92383,457.87891 c 10.52921,2.92307 18.03709,11.85403 23.10836,21.09319 8.4078,16.26833 7.93273,35.98441 1.62721,52.87454 -9.00785,25.76468 -29.12001,46.7484 -53.11536,59.26327 -18.31697,9.83533 -39.29381,15.96643 -60.21609,13.90087 -15.04532,-1.94432 -29.18392,-10.83561 -36.83858,-24.02952 -11.02156,-17.11286 -14.18865,-39.74998 -6.02096,-58.67432 6.16989,-13.64259 18.27192,-23.37924 30.66856,-31.16428 19.16656,-11.76905 40.69002,-18.77985 61.78597,-26.18971 12.59127,-4.08325 25.67617,-7.30306 39.00089,-7.07404 z"
     id="path118168" />
  <path
     style="fill:none;stroke:#000000"
     d="m 1398.5664,452.45117 c 4.3041,1.30173 4.6087,7.54731 1.5854,10.30752 -2.1893,3.11299 -6.199,6.0848 -10.1538,4.53037 -3.8903,-2.81859 -1.9131,-9.41349 2.3626,-10.71227 1.9514,-1.50342 3.4083,-4.24319 6.2058,-4.12562 z"
     id="path118166" />
  <path
     style="fill:none;stroke:#000000"
     d="m 2682.75,442.00391 c 7.8653,0.6754 13.4367,8.30565 14.1875,15.75401 0.8138,7.25749 -2.7049,14.07746 -6.8339,19.78116 -7.0601,11.05794 -12.8365,22.86897 -19.6279,34.08931 -11.3915,19.30595 -24.8207,38.15349 -43.4509,51.10298 -10.0127,6.92052 -21.5608,12.24725 -33.8175,13.1959 -7.1278,0.33407 -15.2158,-1.4936 -19.6564,-7.5282 -6.1053,-9.43083 -5.0518,-21.94902 -0,-31.59594 6.1333,-12.93042 13.954,-24.9636 21.6917,-36.96914 15.384,-22.0237 35.723,-41.33102 60.6173,-52.06499 8.4871,-3.5854 17.6289,-5.94542 26.8937,-5.76509 z"
     id="path118164" />
  <path
     style="fill:none;stroke:#000000"
     d="m 469.85547,328.07617 c -26.32628,31.63462 -45.81196,68.59675 -74.65625,98.19531 -19.16371,19.25899 -43.26375,32.52787 -63.26898,50.8077 -31.03939,25.84215 -61.45189,53.29562 -97.68893,71.78776 -30.82075,15.94842 -65.78525,23.68445 -100.45528,22.4149 -9.02802,-0.12413 -18.13019,-0.98654 -27.11354,0.11053 -3.38568,1.10591 -7.041537,4.21533 -6.45088,8.10222 2.15405,3.9336 7.186,4.00916 11.04603,4.92239 15.1803,2.5216 30.62237,-0.10454 45.86244,1.61537 32.4495,0.53592 64.21684,-10.26492 91.93107,-26.62953 41.50646,-24.0071 75.69091,-58.18576 114.61204,-85.83598 2.46728,-1.66354 4.81216,-4.35591 7.96548,-4.34809 2.1097,1.27523 0.62236,4.07657 -0.70617,5.37499 -6.39844,8.19684 -14.61712,14.68727 -21.96815,21.97823 -14.47235,14.10886 -29.85491,27.23073 -44.88252,40.73497 -27.86862,24.83186 -55.74765,47.49599 -81.13391,75.03903 -36.34005,39.42745 -15.87355,25.9056 -67.41462,67.10833 -51.54107,41.20273 -178.974283,108.21537 -227.443051,213.6837 -7.573373,9.68126 -12.07342,21.82192 -11.982831,34.16389 -0.47204,23.55541 12.240491,47.45717 33.21474,58.70769 35.863481,15.32762 64.805038,-4.82027 87.937377,-27.66839 19.173992,-18.50042 38.536774,-36.8389 59.023668,-53.89197 27.157237,-29.29679 10.309527,-4.21339 74.547857,-89.27442 64.23833,-85.06104 125.86812,-169.07576 170.49687,-242.32455 8.36391,36.48717 11.63551,43.51069 21.0572,51.83622 11.60278,9.74823 24.6207,18.6728 39.6882,21.8487 26.44996,6.75464 55.20207,1.38842 78.49176,-12.47643 28.34496,-15.21743 51.93153,-37.73347 73.12657,-61.63305 20.90002,-23.02691 40.37718,-47.84135 65.5606,-66.46465 11.18738,-7.93918 23.77339,-14.78105 37.57493,-16.42516 6.17387,0.90857 9.80965,7.40054 9.97914,13.2062 0.61367,9.80848 -4.20784,18.75927 -6.17593,28.14778 -4.51033,16.32855 -9.55216,33.16425 -7.54607,50.29478 1.1119,9.05303 5.99433,17.06933 11.56606,24.07708 3.71195,5.36374 6.80375,12.35188 4.21093,18.84287 -3.13572,8.2024 -11.07121,12.9982 -18.28964,17.22534 -10.88454,6.20723 -22.38985,11.63057 -31.86869,19.97555 -26.64301,19.18573 -53.25469,38.44118 -78.89372,58.96312 -62.62781,49.78535 -121.1046,105.49355 -169.21483,169.62835 -9.81085,13.09289 -19.60039,26.21728 -28.79829,39.74992 -6.08383,9.31169 -11.12074,20.28199 -9.74959,31.67294 1.57582,12.50669 11.09633,22.82433 22.29886,27.87275 10.80954,4.98499 23.71004,5.25136 34.61112,0.37893 7.16649,-3.02153 14.05353,-6.66486 21.2536,-9.61226 36.66354,-16.5683 71.61728,-37.53692 101.60481,-64.51444 54.64165,-47.81415 98.77913,-106.10568 139.59499,-165.78512 19.20766,-27.88183 37.55607,-56.35315 57.14086,-83.97464 20.82048,-28.778 44.76914,-55.68607 73.50892,-76.78291 21.49547,-15.98503 44.8218,-29.35067 65.99302,-45.79135 32.24708,-24.42954 62.27353,-52.16482 87.01446,-84.27621 4.63906,-6.17378 9.32136,-12.41571 13.06233,-19.16209 1.08719,-4.68668 -3.68811,-9.1408 -8.28827,-8.39204 -7.06407,-0.25209 -12.90477,4.80184 -16.8613,10.16471 -22.01543,24.35973 -44.04861,48.8064 -68.47093,70.80985 -16.5408,15.57139 -34.71623,30.15367 -56.1133,38.41326 -2.42737,1.31161 -6.01794,0.71489 -6.97385,-2.15263 -2.12803,-4.65227 0.69597,-9.72286 3.81232,-13.16762 4.55529,-5.32944 9.65332,-10.16465 14.27593,-15.43418 10.08278,-10.6178 20.65802,-21.68538 25.33814,-35.89797 1.63229,-4.67674 2.63923,-10.75009 -1.18096,-14.66054 -4.68964,-4.55813 -13.35451,-3.12788 -16.49354,2.57031 -6.86591,8.91931 -13.21564,18.2377 -18.6987,28.07452 -8.83452,15.34587 -17.34584,31.10075 -29.25328,44.35178 -13.69057,16.19947 -28.86499,31.94196 -48.13163,41.43564 -7.29271,3.55452 -15.08546,6.66064 -23.2669,7.11288 -7.72837,0.30072 -15.80115,-2.86334 -20.31356,-9.3423 -5.13531,-6.75925 -6.19876,-15.68093 -5.17181,-23.89603 1.80129,-20.19727 13.60877,-38.10464 14.38882,-58.49011 0.482,-9.43331 -2.02827,-19.70362 -9.43663,-26.08113 -7.6106,-6.9001 -18.67099,-9.1209 -28.56275,-6.86196 -10.0862,2.02804 -18.72973,8.2419 -25.8622,15.41104 -15.92629,13.99305 -28.90949,31.5602 -47.42411,42.43138 -3.90802,1.97698 -8.09155,4.93465 -12.66305,4.04787 -4.24697,-3.08646 -4.1444,-9.00058 -3.33578,-13.65928 2.13476,-15.91969 -1.1431,-32.32172 -8.01404,-46.74526 -6.39514,-13.07248 -17.17134,-24.48897 -31.07466,-29.46868 -18.31978,-6.93579 -39.08256,-4.71936 -56.80999,2.94277 -9.99995,4.25053 -19.11462,10.29003 -27.78583,16.76759 -6.85721,3.74444 -16.44886,-2.65743 -15.46883,-10.45898 0.66231,-3.74684 2.82513,-7.00983 4.37609,-10.43306 7.60744,-14.23683 18.43391,-26.42289 26.28495,-40.51592 10.09253,-17.01093 18.63802,-35.65677 20.09025,-55.63319 0.27521,-4.94316 0.28462,-10.14184 -1.11825,-14.85464 z"
     id="path118162"
     sodipodi:nodetypes="cccccccccccccccszccccczccccccccccccccccccccccccccccccccccccccccccccccccccccccccccccc" />
  <path
     style="fill:none;stroke:#000000"
     d="m 1257.5879,234.11133 c 8.8452,24.26842 11.9015,50.12918 14.1033,75.718 4.032,64.59176 -10.6303,130.89641 -44.9064,186.09182 -9.4387,15.02104 -21.5323,29.28261 -37.8664,36.9798 -17.7544,8.17474 -37.9594,8.79476 -57.0613,6.34503 -23.1517,-3.01628 -45.7566,-10.20018 -66.465,-20.96365 -9.1699,-5.22787 -18.2112,-11.94596 -22.9278,-21.66145 -4.2685,-10.78256 -0.4587,-23.3675 7.1653,-31.66925 7.1104,-8.25535 15.3513,-15.4706 22.2049,-23.95819 39.921,-45.28742 77.3119,-92.73715 117.432,-137.85341 21.1164,-23.85535 42.9439,-47.14321 66.5069,-68.61269 0.5562,-0.29213 1.1825,-0.46619 1.8145,-0.41601 z"
     id="path118160" />
  <path
     style="fill:none;stroke:#000000"
     d="m 2538.3027,205.76172 c 6.9186,0.748 13.2493,4.4102 18.4386,8.89373 11.2662,9.99516 16.5847,26.14401 13.4062,40.87748 -1.6715,8.8517 -4.6172,17.39606 -6.6652,26.15985 -13.6433,49.83695 -38.302,95.87587 -66.4084,138.94881 -20.462,30.87684 -41.4768,61.38393 -62.0402,92.1919 -16.3206,23.03188 -36.0711,44.33502 -60.8138,58.40757 -33.2699,19.59604 -73.3713,28.79675 -111.6729,22.02514 -25.8338,-4.64049 -50.8016,-17.25822 -67.7072,-37.65682 -8.9874,-10.99664 -15.85,-24.65324 -15.6068,-39.14174 0.8699,-14.85186 9.1375,-28.16314 19.1511,-38.70933 10.9689,-11.57004 23.4321,-21.84499 32.6334,-34.99045 38.3278,-49.0851 62.8948,-107.39519 102.379,-155.66358 20.2315,-24.79704 44.7364,-47.12876 74.4633,-59.8145 28.4422,-11.95023 59.1888,-17.06241 89.7322,-20.01774 13.5366,-1.12681 27.1283,-1.68958 40.7107,-1.51032 z"
     id="path118158" />
  <path
     style="fill:none;stroke:#000000"
     d="m 3409.2539,140.3418 c -27.4433,8.16642 -51.4661,24.86656 -72.5081,43.89471 -24.6938,22.42606 -45.1608,49.24201 -71.4035,70.00705 -54.3101,43.59552 -123.2054,69.45895 -193.0383,69.80672 -20.4952,0.0343 -41.0708,-1.88701 -61.0391,-6.5989 -5.4002,-1.42266 -10.8949,-2.75679 -15.9941,-5.06264 -5.3367,-2.82733 -8.453,-9.11023 -7.4528,-15.07482 1.1337,-11.59508 8.2682,-21.3786 15.3388,-30.18958 8.9609,-11.00554 19.309,-21.56549 23.9046,-35.32063 1.7687,-4.90257 3.3569,-10.78952 0.5635,-15.61525 -4.6624,-5.93661 -14.9524,-4.482 -18.5713,1.87386 -5.7078,7.41399 -10.2551,15.64814 -14.5829,23.91815 -8.0392,16.26226 -14.3484,33.89378 -26.8594,47.43359 -9.6915,10.3959 -24.2501,16.2507 -38.4609,14.63477 -18.2456,-1.3988 -34.9586,-9.71176 -52.8393,-12.94001 -66.3702,-14.18146 -136.5948,-11.69106 -201.24,9.40274 -17.4049,5.8531 -34.2949,13.86082 -48.7117,25.35953 0.3504,3.46352 4.4161,5.03801 7.4658,5.06603 5.1834,-0.23978 9.2318,-3.9677 13.9735,-5.63024 22.8266,-10.01749 47.3858,-15.45574 71.9967,-18.84242 43.1611,-5.51563 87.2424,-2.80377 129.6405,6.76964 21.6809,5.03203 43.0651,11.97531 62.8352,22.29956 5.0438,2.84894 9.8436,6.13636 14.2758,9.86868 -5.5913,14.24001 -14.7428,26.64266 -22.1642,39.9235 -29.9198,48.05904 -63.4895,93.86568 -100.496,136.71057 -24.8239,26.46518 -53.7525,49.93196 -87.4615,64.02108 -7.8721,3.31197 -16.1295,7.039 -24.8597,6.43247 -9.985,-2.52404 -16.4236,-12.854 -16.4989,-22.8164 -0.8993,-14.42238 5.4805,-28.17885 13.6241,-39.7058 13.708,-19.46677 31.5442,-36.05226 42.3541,-57.50869 6.5664,-12.64917 11.1368,-27.00345 9.5034,-41.39038 -1.131,-6.41436 -6.3705,-11.91275 -12.8607,-12.97103 -8.4752,-1.82342 -16.9335,1.06797 -25.3078,2.125 -17.2855,2.99605 -34.5686,6.05752 -51.7771,9.45127 -25.3113,6.71221 -47.2152,23.21893 -63.2117,43.65663 -22.6966,27.73818 -38.1964,62.00974 -40.8874,97.96466 -0.6352,13.17551 7.2781,25.586 18.0415,32.68184 12.8188,8.71338 30.0141,10.45143 44.3016,4.41238 10.7374,-4.18049 19.5176,-11.97821 27.4147,-20.15504 5.7248,-5.0126 14.1853,-6.27642 21.225,-3.50447 5.7998,2.07406 10.4031,6.5748 13.5754,11.73999 7.9688,8.83243 19.9946,14.98168 32.0987,13.25818 11.9511,-2.58182 22.6041,-8.94096 32.9921,-15.12358 30.0341,-19.46605 52.5553,-48.54395 83.469,-66.80689 3.9144,-2.16088 7.7913,-5.06161 12.3336,-5.51247 2.7603,1.05168 2.1366,4.6507 1.9552,6.98593 -1.3095,12.79044 -1.8428,26.07522 2.4575,38.40106 5.4271,16.59607 17.0157,31.77244 33.1304,39.11792 9.9627,4.66791 21.9616,4.83283 31.9052,0.0285 10.4701,-4.80493 17.2635,-14.49025 24.5911,-22.93705 2.451,-3.61362 7.7738,-3.39851 11.227,-1.43444 2.986,1.53217 4.9989,4.51085 5.7383,7.70499 7.2701,11.15567 20.4173,17.12988 33.3097,18.6487 16.5723,1.68256 34.4355,-4.7695 44.4132,-18.47243 5.1464,-7.0495 9.027,-15.76446 17.1121,-19.98724 7.1749,-3.04172 15.2874,-0.22645 21.4125,3.89312 9.1262,5.60354 17.4542,13.50689 28.4146,15.22489 18.3024,3.1374 36.9655,-1.74365 53.5609,-9.37356 13.4829,-5.72645 27.039,-13.26284 35.4786,-25.64249 2.5563,-3.72348 5.4561,-8.4314 3.6529,-13.06416 -4.5185,-7.54395 -16.9668,-7.11166 -21.467,0.24585 -3.4903,4.80477 -7.3449,9.39526 -12.131,12.96427 -12.9401,10.7196 -29.8163,17.73712 -46.8257,16.06331 -11.3591,-1.38802 -21.7936,-9.12114 -25.9687,-19.84961 -6.0943,-13.74522 -3.9836,-30.12916 3.5262,-42.89378 6.4252,-12.35058 15.1023,-24.08367 17.134,-38.19692 1.4438,-9.72517 -3.7229,-20.65283 -13.2403,-24.15148 -8.842,-3.64733 -18.5858,-1.49373 -27.5152,0.62796 -30.2816,6.6511 -58.0775,22.20011 -81.5016,42.26982 -23.1442,19.53844 -42.2185,43.20842 -63.1997,64.92169 -4.1752,4.16236 -8.2871,8.48188 -13.0175,12.00687 -6.2454,3.70881 -15.0505,4.62609 -20.9118,-0.31054 -6.912,-6.00499 -8.408,-16.06972 -6.7922,-24.67694 2.1413,-14.46242 7.4895,-28.16091 11.1083,-42.26918 12.6542,-41.59743 30.3508,-82.33782 57.5454,-116.596 7.9151,-10.07009 16.2652,-20.23918 27.2292,-27.12087 11.2798,-5.77804 24.5227,-5.26217 36.6521,-2.99053 21.4855,3.22608 43.0565,7.3566 64.8869,6.39108 80.8728,0.012 160.5994,-30.04643 223.6432,-80.23326 25.3368,-19.92448 47.1706,-43.83523 67.8737,-68.42242 7.3437,-7.55438 16.3507,-14.13558 26.8859,-16.168 3.7425,0.8614 4.2086,5.79025 2.6503,8.69195 -2.6887,7.28913 -5.4004,14.57476 -7.6355,22.01636 -18.0613,51.34283 -46.7283,98.18946 -64.6632,149.58593 -8.2267,23.4872 -14.1924,47.84394 -16.7392,72.62336 -0.5901,8.20961 -0.7311,16.73855 1.9579,24.62147 1.5774,4.48066 5.0466,8.51789 9.834,9.58593 7.5229,2.18628 15.6211,1.07456 22.9942,-1.16211 12.0815,-4.13691 21.5278,-13.2791 29.646,-22.80241 22.3239,-24.63163 38.4063,-53.96651 54.4634,-82.84852 13.9469,-24.62309 28.8444,-49.24816 49.4335,-68.9643 1.7015,-1.69288 2.7649,-4.41879 5.1914,-5.14062 2.6746,-0.44192 5.6575,2.52237 4.0258,5.12308 -4.7963,15.71866 -13.5847,29.75126 -20.1553,44.7168 -4.4568,10.66789 -7.6435,22.59862 -5.0541,34.14254 2.3666,9.02465 10.2932,15.98893 19.3517,17.83143 8.2164,1.8982 17.5743,-0.40801 23.1811,-6.92415 10.417,-10.50006 14.7827,-25.00144 21.9044,-37.61449 3.9067,-6.66662 8.8892,-13.32988 16.0806,-16.61948 4.7175,-0.87007 8.6647,3.55995 9.3591,7.89569 1.8492,5.90452 4.0722,12.40716 9.6594,15.79782 12.2326,9.28284 30.0041,8.87731 42.8511,1.04329 5.1501,-3.06713 9.2668,-7.51918 13.6194,-11.53097 5.7381,-2.97957 12.5909,-0.32111 17.2216,3.51749 6.1618,4.44979 12.1552,10.43199 20.1815,10.88572 7.4109,0.3146 13.3752,-4.85289 18.7708,-9.2438 8.3173,-6.55764 17.5023,-13.36637 28.4633,-14.06709 23.5015,-1.68069 47.0293,4.21502 70.4697,0.62856 25.4047,-3.04567 50.9039,-5.24798 76.4084,-7.26306 34.2572,-2.61888 68.5962,-4.0202 102.9447,-4.64414 13.7176,-0.3879 27.7849,-1.24486 40.6543,-6.40767 4.1885,-2.24882 3.974,-8.30772 1.375,-11.70312 -2.3115,-3.17201 -6.2217,-4.54618 -9.7515,-5.89161 -10.4421,-3.2885 -21.4285,-0.85989 -32.067,-0.21581 -26.1434,2.08092 -52.3148,3.79332 -78.4739,5.661 -57.8066,3.81314 -116.0451,5.70951 -173.722,-0.94161 -5.9288,-0.92376 -12.5084,-1.75363 -17.8541,1.65616 -6.5847,3.74737 -11.8525,10.42669 -19.7994,11.30326 -5.8663,0.54934 -10.1841,-4.16132 -14.5386,-7.31119 -7.3226,-5.34787 -16.0163,-10.35962 -25.4237,-9.35691 -9.1472,1.27728 -15.6025,8.55523 -23.329,12.87391 -3.7465,2.04368 -8.252,4.00622 -12.5547,2.73347 -4.4374,-1.63919 -6.2881,-6.38091 -7.7054,-10.49853 -1.8876,-4.99292 -4.4496,-10.61421 -9.8861,-12.50238 -10.0863,-4.08554 -21.6503,-1.0563 -30.4661,4.66208 -11.6978,7.54778 -19.239,19.81628 -24.8641,32.24597 -3.644,7.39634 -7.9765,15.39073 -15.7654,19.06121 -4.2539,1.2693 -8.3291,-2.81987 -8.4554,-6.94916 -1.0481,-7.52234 3.4167,-14.23527 7.13,-20.36439 6.7147,-10.6917 14.9807,-21.13842 17.0095,-33.95446 1.4256,-9.48673 -2.9893,-20.34793 -12.121,-24.31316 -8.6031,-3.71131 -18.685,-0.61642 -25.5983,5.1684 -13.5741,10.63834 -23.1749,25.28014 -32.2257,39.73255 -15.3844,25.05059 -28.3175,51.6437 -45.7976,75.3746 -10.4239,14.79579 -21.3096,29.45129 -34.7435,41.68881 -7.8912,7.17062 -16.4821,13.74051 -26.0524,18.50202 -3.1611,1.45551 -7.2218,1.42822 -9.759,-1.2197 -5.1064,-4.39525 -5.8789,-12.0392 -3.7168,-18.11328 2.1687,-7.39931 5.4604,-14.41274 7.6423,-21.80885 14.4818,-40.83343 34.2204,-79.52777 54.8033,-117.56372 18.7264,-35.44875 36.7226,-71.80026 46.423,-110.90557 2.582,-10.70615 5.7246,-22.04547 2.613,-32.99176 -1.5449,-5.23276 -5.6052,-10.76213 -11.5383,-10.90895 -0.9575,0.0865 -1.8893,0.51107 -2.832,0.72768 z"
     id="path118156" />
  <path
     style="fill:none;stroke:#000000"
     d="m 2363.7012,55.855469 c 69.052,2.705797 134.6972,44.919621 166.7725,105.973101 1.1074,2.27101 2.4906,4.41881 3.2958,6.82768 -17.1429,7.01809 -36.0245,6.38956 -54.1933,6.21484 -15.3907,-0.0645 -31.4117,0.5397 -45.543,7.31641 -4.582,3.5041 -10.1614,7.27482 -16.2318,5.85917 -6.222,-0.76241 -12.5276,-5.81554 -12.4971,-12.46831 0.9786,-8.07265 6.4655,-14.47777 10.1569,-21.43546 8.4227,-13.33658 18.428,-26.32559 21.9061,-42.03792 1.0408,-4.20921 2.0792,-9.46488 -1.1327,-12.997182 -4.6805,-3.148637 -11.2983,0.256372 -12.9266,5.266852 -12.4653,13.12661 -18.8305,30.42384 -25.4976,46.90686 -5.8216,14.05164 -12.5806,28.49406 -24.5112,38.43349 -12.8348,10.48083 -31.007,13.68747 -46.7442,8.63847 -16.4444,-4.663 -31.0699,-17.19378 -36.137,-33.79488 -9.9592,-30.30598 0.2816,-65.283925 23.0429,-87.155532 13.3473,-12.953791 31.3944,-21.754497 50.2403,-21.547589 z"
     id="path118154" />
  <path
     style="fill:none;stroke:#000000"
     d="m 1363.2698,32.21879 c 11.1388,3.589307 22.6386,18.175534 20.0546,28.817058 -2.5841,10.641524 -14.8099,19.167349 -24.8004,27.055576 -32.7056,27.335026 -49.3363,45.876276 -72.0252,69.042496 6.0316,-13.60294 -3.467,-37.45614 2.3107,-51.5267 9.3038,-21.742581 19.9981,-45.860054 38.8372,-60.813156 9.8632,-7.828689 23.6375,-16.437446 35.6231,-12.575274 z"
     id="path118152"
     sodipodi:nodetypes="azcccaa" />
  <path
     style="fill:none;stroke:#000000"
     d="m 2367.8262,32.154297 c -29.2955,0.746977 -57.1555,15.992175 -75.6572,38.371466 -25.7979,30.627847 -33.9036,75.646717 -18.8177,112.958857 6.1665,14.80821 16.4963,28.70729 31.2841,35.71296 9.2118,4.36716 19.5745,7.93426 25.9285,16.4031 3.5635,4.63223 3.162,11.28148 0.188,16.10047 -6.8899,15.22757 -20.6171,25.8635 -28.434,40.52246 -11.878,19.34128 -24.5957,38.14823 -36.9071,57.21287 -29.8932,45.58802 -61.1065,90.87324 -100.0854,129.28098 -4.1927,3.77802 -7.8709,8.31288 -12.8417,11.10282 -5.869,2.58055 -12.2858,-0.3314 -17.2872,-3.50967 -5.4385,-3.5852 -10.6265,-7.64202 -16.6975,-10.14321 -10.5295,-4.81595 -23.256,-6.73689 -34.0574,-1.66033 -7.3725,3.42408 -12.7473,9.83017 -17.1689,16.45638 -19.0755,25.39331 -30.2446,57.31575 -28.3329,89.23872 0.9512,13.4495 12.3189,24.64989 25.2714,27.20646 10.5916,2.41673 21.9584,-0.70745 30.4393,-7.32946 10.2674,-7.28333 17.0919,-18.17341 23.1836,-28.94373 9.0644,-12.73803 27.5356,-16.67928 41.5162,-10.27466 10.349,4.6862 16.9489,14.38094 23.3975,23.28322 6.1016,8.56169 12.6166,17.2404 21.7426,22.79413 34.5906,23.38479 78.8639,30.81561 119.5232,22.23954 39.8843,-8.07364 76.3353,-30.36448 103.0775,-60.85604 20.2921,-22.61364 37.0268,-48.10295 53.1277,-73.78452 26.8158,-43.79511 50.0481,-89.63563 75.4258,-134.25332 17.9825,-33.47095 30.8128,-70.02889 34.9879,-107.91026 1.4092,-10.73848 1.8985,-21.65061 4.2445,-32.23264 4.0569,-8.74649 13.4114,-13.71722 22.5305,-15.4723 9.6367,-1.7874 19.3137,0.84487 28.9902,0.47161 11.9431,-0.16653 23.8661,-0.97973 35.7978,-1.47556 65.6838,-3.62502 131.1277,-11.83832 196.9789,-12.12752 19.9255,-0.9464 39.8413,-2.15933 59.7123,-3.92384 -1.0575,-8.70252 -9.9687,-14.64948 -18.3647,-14.38345 -14.117,-0.89869 -28.2774,-0.72523 -42.3982,-1.54081 -63.3649,-1.735 -126.6423,2.9801 -189.8963,5.92748 -32.1066,0.94977 -64.6714,0.3197 -95.9844,-7.55872 -18.8381,-5.94475 -34.4604,-18.885 -47.9644,-32.90006 -22.8258,-23.56276 -42.7382,-50.401165 -69.7135,-69.576098 -30.0344,-21.572946 -66.4405,-34.86933 -103.5672,-35.439044 -1.0572,0.0039 -2.1145,0.0078 -3.1718,0.01172 z"
     id="path118150" />
  <path
     style="fill:none;stroke:#000000"
     d="m 1350.3164,5.3398438 c -22.3421,1.4673634 -42.9063,14.3347712 -56.2096,32.0036692 -12.2633,16.233409 -20.6527,35.002522 -27.5925,54.017923 -10.6745,32.092904 -13.0392,66.040954 -17.9639,99.291344 -2.4139,14.7027 -8.8444,28.50099 -17.4596,40.57576 -14.2159,20.35269 -32.845,36.99564 -48.8322,55.8722 -23.3561,26.91492 -45.4793,54.86594 -68.5391,82.03162 -29.2185,34.59817 -59.4651,68.56175 -93.5907,98.43478 -3.4221,3.42525 -8.9036,3.22327 -12.956,1.11128 -8.03985,-3.83204 -12.74125,-12.12447 -15.0379,-20.40832 -0.95634,-3.89239 -1.93671,-7.9913 -4.82809,-10.96563 -3.59619,-4.35285 -10.55311,-5.95941 -15.24897,-2.42324 -3.60302,2.68333 -5.16106,7.23128 -6.26682,11.41565 -2.29825,11.32474 0.60055,22.78175 1.16808,34.13101 0.51562,7.14225 -0.0405,14.3476 -1.84244,21.2841 -6.32776,28.84372 -26.02035,53.89758 -51.36154,68.66788 -20.83983,12.88885 -42.25861,25.59502 -59.39367,43.37235 -0.74023,0.92534 -2.20565,2.04416 -2.45496,2.89054 8.47939,3.52132 18.1161,0.53375 25.413,-4.33742 19.18623,-10.32644 33.92501,-26.70937 49.97957,-41.06482 9.91645,-8.50821 20.87441,-16.57791 33.74059,-19.81759 7.77405,-0.65872 14.52602,5.59999 16.8744,12.62416 3.34662,8.58139 4.69325,18.04241 10.00397,25.77148 23.33928,41.16017 71.86258,66.39611 118.96528,61.76713 15.5365,-1.457 30.6591,-6.48045 44.1094,-14.36734 21.9573,-12.58634 39.4468,-31.23278 56.7621,-49.36045 13.25,-13.75687 26.7028,-27.70578 42.9928,-37.903 8.2081,-4.71563 17.8903,-8.06997 27.4284,-6.47931 3.8005,2.17765 3.2535,7.82771 0.5455,10.67596 -4.8747,6.65007 -12.6115,10.33362 -17.961,16.53192 -49.3908,46.30176 -99.5862,91.73354 -149.3247,137.65896 -60.3128,56.1322 -118.84407,114.62175 -169.55464,179.71791 -7.63355,9.78407 -15.52478,19.61914 -20.66271,30.9995 -4.63585,12.27825 -2.98918,27.08223 5.47296,37.34054 14.62646,19.57743 42.7107,27.2653 65.41378,18.46675 11.44701,-4.23287 21.86911,-10.70548 32.40431,-16.76612 30.8983,-18.96651 56.7204,-44.72761 82.5528,-69.86223 16.1897,-15.7245 32.7286,-31.10236 48.4413,-47.30908 45.918,-48.02254 83.9044,-102.7285 124.0714,-155.45541 15.8285,-20.84218 31.789,-41.63076 49.0883,-61.27988 4.7656,-4.26581 11.6585,-4.29244 17.6219,-3.31942 19.547,2.43293 37.246,11.72517 56.0407,17.00168 11.1662,3.30453 22.7928,4.87351 34.4285,4.92335 24.5024,0.32669 48.5776,-6.04651 71.2212,-14.9869 21.2166,-7.65048 42.9589,-15.48817 65.7678,-15.94652 15.7031,0.0396 31.4881,4.53759 47.1113,1.09642 18.1185,-3.08233 34.2469,-13.20798 47.5265,-25.56996 17.7556,-15.96158 32.3066,-35.60878 52.5219,-48.72552 1.979,-1.08084 4.251,1.21849 3.2751,3.21687 -0.8764,3.02095 -3.1342,5.44534 -3.7823,8.56814 -5.7865,16.74874 -3.2357,35.56325 4.4459,51.27791 10.8381,21.66591 32.9152,37.85155 57.2871,39.80859 16.9541,1.57307 33.859,-1.5193 50.5234,-4.2794 46.4892,-9.2508 88.9617,-33.5673 124.0362,-64.98593 14.4061,-13.03098 28.3351,-26.59365 41.8269,-40.56694 14.0402,-14.93042 27.1706,-31.14732 35.8422,-49.84708 1.0464,-2.08171 0.4932,-5.03915 -1.9826,-5.74643 -2.9659,-1.1378 -5.9961,0.79255 -7.7768,3.07298 -12.2057,10.81636 -23.298,22.85624 -33.2103,35.80201 -12.097,15.13337 -24.637,30.55893 -41.3625,40.8115 -13.815,8.92103 -27.7288,17.75477 -42.3116,25.37961 -31.0325,15.95991 -65.7394,25.77782 -100.8157,24.96565 -15.0074,-0.28037 -30.4383,-2.28417 -43.9361,-9.22882 -10.8325,-6.40133 -17.0133,-19.28534 -16.1106,-31.72682 0.3799,-20.95724 14.2794,-40.39527 33.0597,-49.15809 10.1995,-5.0625 21.6594,-6.54064 32.2225,-10.58565 5.3125,-2.2414 10.9596,-5.63472 12.9431,-11.36203 1.7753,-6.95797 -3.6588,-14.57049 -10.7597,-15.35064 -11.2235,-3.49686 -23.1171,-0.62699 -33.9802,2.79753 -26.7564,7.78029 -50.3645,23.58209 -71.3749,41.51462 -23.6646,19.63489 -45.7721,41.66399 -72.8552,56.69725 -9.5556,5.05095 -20.0237,8.99432 -30.9485,9.20879 -5.9488,-2.41754 -7.2763,-10.59557 -4.1169,-15.70862 3.8127,-6.94176 11.4132,-10.23861 17.5077,-14.77757 15.4556,-10.17749 32.06,-19.44927 44.0571,-33.88478 12.2265,-13.27193 22.5642,-29.3094 25.1061,-47.49573 1.1869,-7.07695 0.3558,-15.41528 -5.3951,-20.39314 -8.5294,-7.99587 -22.4505,-8.29821 -32.0397,-2.02771 -19.3753,10.28853 -34.3504,27.143 -46.1548,45.33985 -18.2945,27.40251 -32.4026,57.80185 -54.7535,82.34239 -14.0564,15.41746 -31.6041,28.63669 -52.1527,33.68637 -6.4317,1.51068 -13.867,2.11435 -19.65,-1.65528 -2.9593,-3.11806 -1.1875,-8.01782 1.2424,-10.89379 5.2383,-6.43946 13.0908,-9.95615 18.6613,-16.0686 20.0395,-20.13996 32.4543,-48.47917 31.0379,-77.10008 -0.4392,-10.85339 -3.1702,-21.86211 -9.5627,-30.7969 -9.7006,-13.91833 -27.3167,-21.01926 -43.9927,-19.85578 -4.8316,0.22924 -9.5489,1.45289 -14.1548,2.7877 -9.9194,0.90273 -20.1202,-7.98006 -19.185,-18.19743 1.8674,-9.9058 8.6948,-17.74911 14.4899,-25.63334 9.0379,-11.35333 18.5897,-22.81162 23.3841,-36.73164 2.926,-7.48832 4.6969,-16.21262 1.4155,-23.87875 -2.7074,-4.05559 -8.7611,-3.56636 -12.2878,-0.90487 -6.9539,4.40362 -10.337,12.32086 -16.0965,17.95131 -14.776,16.71334 -30.7409,32.33046 -46.9213,47.67099 -29.8327,27.81833 -61.4653,53.81888 -95.4056,76.48751 -13.7243,8.59217 -28.728,16.12064 -45.0153,17.94492 -3.7787,-0.15757 -7.1132,-4.15163 -5.7987,-7.89368 1.2522,-8.96412 5.5394,-17.08412 9.0974,-25.28841 9.5729,-19.67915 22.4895,-38.01972 27.991,-59.45717 4.8566,-23.05741 7.9035,-46.54089 8.4866,-70.10808 1.0484,-46.65891 -6.3899,-92.92119 -13.7054,-138.8469 -2.0765,-14.00303 -2.3112,-28.74228 2.8657,-42.14001 5.4878,-15.09432 15.9748,-27.78123 27.7989,-38.40382 21.176,-19.67474 47.2605,-33.63396 66.5544,-55.400965 8.448,-10.76894 9.5265,-25.779398 5.6381,-38.555316 -4.8563,-16.496341 -18.2049,-30.929769 -35.2366,-34.8724428 -2.8071,-0.6056807 -5.6786,-0.9026336 -8.5508,-0.8515624 z"
     id="Selection" />
  <path
     style="fill:#ff0000;stroke:none"
     d="m 3413.4974,63.193331 c -54.5817,6.026139 -79.783,61.345379 -121.5463,89.964109 -39.3074,35.44796 -83.4043,67.06239 -132.9512,86.21257 -59.4638,5.98711 -121.0681,16.28541 -179.6169,-0.54025 -20.5145,-10.08258 -45.4267,-5.74077 -68.0209,-12.44049 -58.4018,-18.77657 -121.7248,-27.25478 -182.0392,-12.01805 -41.8952,4.65735 -82.1114,20.18038 -120.1047,37.52806 0.6684,22.63468 34.3466,-4.54728 49.9887,-4.87666 52.4044,-20.28517 110.0326,-20.71451 165.165,-14.89671 27.9742,9.01864 57.0671,14.04924 84.4482,25.04534 23.0439,4.07829 43.469,13.6856 67.4048,14.46805 52.6264,14.76674 107.6412,8.53839 161.2742,3.88146 73.7244,-6.96587 132.6514,-59.88439 186.1111,-106.65071 25.283,-22.28882 46.3422,-49.25641 71.74,-71.022183 7.1714,5.605373 -12.3141,32.376113 -15.8661,46.495743 -11.4486,36.64758 -27.6819,71.21915 -45.2576,105.31066 -18.2248,46.87152 -40.5923,94.29988 -41.797,145.34506 26.4814,50.6364 78.5572,-30.1523 100.9805,-54.99899 28.1253,-42.80007 48.6148,-90.71399 81.5228,-130.17026 24.861,-0.58617 -29.076,58.57528 -22.8925,89.03582 -7.6404,55.41426 50.5274,22.91979 58.8306,-9.70053 10.5174,-26.14652 45.751,-62.15642 29.3398,-11.12497 16.219,54.34948 69.7679,-20.66201 75.8772,-9.51057 10.4027,53.13343 53.7229,1.6296 73.1381,-4.66477 23.4485,17.55602 55.3813,1.59806 84.746,4.8496 25.9869,-7.77115 53.8747,2.25146 79.8848,-7.4878 43.2543,-5.50877 87.2529,0.3799 130.2791,-1.9486 35.2601,-31.06533 -24.7916,-23.2816 -45.8011,-23.27885 -39.3087,-0.58738 -78.9699,-0.48557 -117.1911,8.76591 -21.5594,-3.80131 -42.9152,-0.69153 -64.1436,3.02461 -22.6451,-23.94697 -47.1337,12.95441 -69.2413,-15.1104 -28.4842,4.40585 -48.5332,54.22994 -53.2156,7.37231 -22.1189,-39.7271 -72.1848,59.60736 -64.5973,13.85982 5.0836,-59.37386 -69.8614,-13.22185 -74.6356,22.08822 -9.3711,24.10624 -29.4945,43.11447 -18.0053,5.97451 10.6,-28.867 55.3794,-115.0543 -10.4357,-83.88703 -29.2455,29.0563 -46.05,67.57452 -68.9788,101.46121 -24.0158,36.78022 -51.8672,73.32735 -88.8907,97.45174 -1.6126,-62.51223 35.4069,-117.56107 62.814,-171.58616 21.7436,-39.36629 34.1167,-83.14956 54.6907,-123.16025 5.8013,-13.287322 7.9622,-38.948267 -13.0071,-39.060569 z"
     id="path104320-9" />
  <g
     id="g104362"
     transform="translate(-2.5473295,6.4870317)">
    <path
       style="fill:#0000ff;stroke:#0000ff;stroke-width:2.25;stroke-linecap:butt;stroke-linejoin:miter;stroke-opacity:1"
       d="M 937.69784,962.99315 1487.9447,347.4776"
       id="path103574" />
    <path
       style="fill:#0000ff;stroke:#0000ff;stroke-width:2.25;stroke-linecap:butt;stroke-linejoin:miter;stroke-opacity:1"
       d="M 847.6979,617.99338 1397.9447,2.4778093"
       id="path103574-6" />
    <path
       style="fill:#0000ff;stroke:#0000ff;stroke-width:2.25;stroke-linecap:butt;stroke-linejoin:miter;stroke-opacity:1"
       d="M 376.69822,962.99315 926.94476,347.4776"
       id="path103574-7" />
    <path
       style="fill:#0000ff;stroke:#0000ff;stroke-width:2.25;stroke-linecap:butt;stroke-linejoin:miter;stroke-opacity:1"
       d="M -82.301518,962.99315 467.94506,347.4776"
       id="path103574-3" />
    <path
       style="fill:#0000ff;stroke:#0000ff;stroke-width:2.25;stroke-linecap:butt;stroke-linejoin:miter;stroke-opacity:1"
       d="M 2043.7908,619.43482 2594.0377,3.919238"
       id="path103574-1" />
    <path
       style="fill:#0000ff;stroke:#0000ff;stroke-width:2.25;stroke-linecap:butt;stroke-linejoin:miter;stroke-opacity:1"
       d="M 2757.0448,619.413 3307.2917,3.8974279"
       id="path103574-2" />
  </g>
</svg>
