<?xml version="1.0" encoding="UTF-8" standalone="no"?>
<svg
   width="55.940281in"
   height="14.482856in"
   viewBox="0 0 4027.6994 1042.7648"
   version="1.1"
   id="svg103451"
   sodipodi:docname="pyspec_path.svg"
   inkscape:version="1.2.2 (b0a8486541, 2022-12-01)"
   xmlns:inkscape="http://www.inkscape.org/namespaces/inkscape"
   xmlns:sodipodi="http://sodipodi.sourceforge.net/DTD/sodipodi-0.dtd"
   xmlns="http://www.w3.org/2000/svg"
   xmlns:svg="http://www.w3.org/2000/svg">
  <defs
     id="defs103455">
    <filter
       inkscape:collect="always"
       style="color-interpolation-filters:sRGB"
       id="filter298921"
       x="-0.0088919324"
       y="-0.035391769"
       width="1.0177839"
       height="1.0707835">
      <feGaussianBlur
         inkscape:collect="always"
         stdDeviation="5.1342795"
         id="feGaussianBlur298923" />
    </filter>
    <filter
       inkscape:collect="always"
       style="color-interpolation-filters:sRGB"
       id="filter298921-7"
       x="-0.010198267"
       y="-0.040591261"
       width="1.0203965"
       height="1.0811825">
      <feGaussianBlur
         inkscape:collect="always"
         stdDeviation="5.8885691"
         id="feGaussianBlur298923-6" />
    </filter>
  </defs>
  <sodipodi:namedview
     id="namedview103453"
     pagecolor="#ffffff"
     bordercolor="#666666"
     borderopacity="1.0"
     inkscape:showpageshadow="2"
     inkscape:pageopacity="0.0"
     inkscape:pagecheckerboard="0"
     inkscape:deskcolor="#d1d1d1"
     inkscape:document-units="in"
     showgrid="true"
     inkscape:zoom="0.073107788"
     inkscape:cx="1661.9296"
     inkscape:cy="861.7413"
     inkscape:window-width="1234"
     inkscape:window-height="691"
     inkscape:window-x="0"
     inkscape:window-y="0"
     inkscape:window-maximized="1"
     inkscape:current-layer="svg103451">
    <inkscape:grid
       type="xygrid"
       id="grid298846"
       originx="14.507199"
       originy="34.514442" />
  </sodipodi:namedview>
  <rect
     style="opacity:1;fill:#000000;stroke:none;stroke-width:14.6883;stroke-linecap:round;stroke-linejoin:round;stroke-opacity:0.301961;paint-order:markers stroke fill;stop-color:#000000"
     id="rect298998"
     width="2921.7615"
     height="64.189148"
     x="195.61436"
     y="704.74994" />
  <path
     style="opacity:0.471206;mix-blend-mode:normal;fill:#000000;stroke:none;filter:url(#filter298921)"
     d="m 3387.0642,121.26561 c -54.5817,6.02614 -79.783,61.34537 -121.5463,89.9641 -39.3074,35.44796 -83.4043,67.06239 -132.9512,86.21257 -59.4638,5.98711 -121.0681,16.28541 -179.6169,-0.54025 -20.5145,-10.08258 -45.4267,-5.74077 -68.0209,-12.44049 -58.4018,-18.77657 -121.7248,-27.25478 -182.0392,-12.01805 -41.8952,4.65735 -82.1114,20.18038 -120.1047,37.52806 0.6684,22.63468 34.3466,-4.54728 49.9887,-4.87666 52.4044,-20.28517 110.0326,-20.71451 165.165,-14.89671 27.9742,9.01864 57.0671,14.04924 84.4482,25.04534 23.0439,4.07829 43.469,13.6856 67.4048,14.46805 52.6264,14.76674 107.6412,8.53839 161.2742,3.88146 73.7244,-6.96587 132.6514,-59.88439 186.1111,-106.65071 25.283,-22.28882 46.3422,-49.25641 71.74,-71.02218 7.1714,5.60537 -12.3141,32.37611 -15.8661,46.49574 -11.4486,36.64758 -27.6819,71.21915 -45.2576,105.31066 -18.2248,46.87152 -40.5923,94.29988 -41.797,145.34506 26.4814,50.6364 78.5572,-30.1523 100.9805,-54.99899 28.1253,-42.80007 48.6148,-90.71399 81.5228,-130.17026 24.861,-0.58617 -29.076,58.57528 -22.8925,89.03582 -7.6404,55.41426 50.5274,22.91979 58.8306,-9.70053 10.5174,-26.14652 45.751,-62.15642 29.3398,-11.12497 16.219,54.34948 69.7679,-20.66201 75.8772,-9.51057 10.4027,53.13343 53.7229,1.6296 73.1381,-4.66477 23.4485,17.55602 55.3813,1.59806 84.746,4.8496 25.9869,-7.77115 53.8747,2.25146 79.8848,-7.4878 43.2543,-5.50877 87.2529,0.3799 130.2791,-1.9486 35.2601,-31.06533 -24.7916,-23.2816 -45.8011,-23.27885 -39.3087,-0.58738 -78.9699,-0.48557 -117.1911,8.76591 -21.5594,-3.80131 -42.9152,-0.69153 -64.1436,3.02461 -22.6451,-23.94697 -47.1337,12.95441 -69.2413,-15.1104 -28.4842,4.40585 -48.5332,54.22994 -53.2156,7.37231 -22.1189,-39.7271 -72.1848,59.60736 -64.5973,13.85982 5.0836,-59.37386 -69.8614,-13.22185 -74.6356,22.08822 -9.3711,24.10624 -29.4945,43.11447 -18.0053,5.97451 10.6,-28.867 55.3794,-115.0543 -10.4357,-83.88703 -29.2455,29.0563 -46.05,67.57452 -68.9788,101.46121 -24.0158,36.78022 -51.8672,73.32735 -88.8907,97.45174 -1.6126,-62.51223 35.4069,-117.56107 62.814,-171.58616 21.7436,-39.36629 34.1167,-83.14956 54.6907,-123.16025 5.8013,-13.28732 7.9622,-38.94826 -13.0071,-39.06056 z"
     id="path298928" />
  <path
     style="opacity:0.471206;mix-blend-mode:normal;fill:#000000;stroke:none;filter:url(#filter298921-7)"
     d="m 3432.0642,82.265636 c -54.5817,6.026136 -79.783,61.345344 -121.5463,89.964074 -39.3074,35.44796 -83.4043,67.06239 -132.9512,86.21257 -59.4638,5.98711 -121.0681,16.28541 -179.6169,-0.54025 -20.5145,-10.08258 -45.4267,-5.74077 -68.0209,-12.44049 -58.4018,-18.77657 -121.7248,-27.25478 -182.0392,-12.01805 -41.8952,4.65735 -82.1114,20.18038 -120.1047,37.52806 0.6684,22.63468 34.3466,-4.54728 49.9887,-4.87666 52.4044,-20.28517 110.0326,-20.71451 165.165,-14.89671 27.9742,9.01864 57.0671,14.04924 84.4482,25.04534 23.0439,4.07829 43.469,13.6856 67.4048,14.46805 52.6264,14.76674 107.6412,8.53839 161.2742,3.88146 73.7244,-6.96587 132.6514,-59.88439 186.1111,-106.65071 25.283,-22.28882 46.3422,-49.25641 71.74,-71.02217 7.1714,5.60537 -12.3141,32.3761 -15.8661,46.49573 -11.4486,36.64758 -27.6819,71.21915 -45.2576,105.31066 -18.2248,46.87152 -40.5923,94.29988 -41.797,145.34506 26.4814,50.6364 78.5572,-30.1523 100.9805,-54.99899 28.1253,-42.80007 48.6148,-90.71399 81.5228,-130.17026 24.861,-0.58617 -29.076,58.57528 -22.8925,89.03582 -7.6404,55.41426 50.5274,22.91979 58.8306,-9.70053 10.5174,-26.14652 45.751,-62.15642 29.3398,-11.12497 16.219,54.34948 69.7679,-20.66201 75.8772,-9.51057 10.4027,53.13343 53.7229,1.6296 73.1381,-4.66477 23.4485,17.55602 55.3813,1.59806 84.746,4.8496 25.9869,-7.77115 53.8747,2.25146 79.8848,-7.4878 43.2543,-5.50877 87.2529,0.3799 130.2791,-1.9486 35.2601,-31.06533 -24.7916,-23.2816 -45.8011,-23.27885 -39.3087,-0.58738 -78.9699,-0.48557 -117.1911,8.76591 -21.5594,-3.80131 -42.9152,-0.69153 -64.1436,3.02461 -22.6451,-23.94697 -47.1337,12.95441 -69.2413,-15.1104 -28.4842,4.40585 -48.5332,54.22994 -53.2156,7.37231 -22.1189,-39.7271 -72.1848,59.60736 -64.5973,13.85982 5.0836,-59.37386 -69.8614,-13.22185 -74.6356,22.08822 -9.3711,24.10624 -29.4945,43.11447 -18.0053,5.97451 10.6,-28.867 55.3794,-115.0543 -10.4357,-83.88703 -29.2455,29.0563 -46.05,67.57452 -68.9788,101.46121 -24.0158,36.78022 -51.8672,73.32735 -88.8907,97.45174 -1.6126,-62.51223 35.4069,-117.56107 62.814,-171.58616 21.7436,-39.36629 34.1167,-83.14956 54.6907,-123.16024 5.8013,-13.28731 7.9622,-38.948244 -13.0071,-39.060544 z"
     id="path298928-7" />
  <path
     style="fill:#0000ff;stroke:#00ff00;stroke-width:2.25;stroke-linecap:butt;stroke-linejoin:miter;stroke-opacity:1"
     d="M 2051.2565,668.23057 2537.0375,0.661941"
     id="path103574-2-5-7"
     inkscape:transform-center-x="-165.91346"
     inkscape:transform-center-y="-226.87381" />
  <path
     id="path111943"
     style="fill:#000000;stroke:#000000"
     d="m 3344.9281,172.26979 c -3.8815,-0.0225 -7.9145,0.79955 -11.4976,1.72705 -18.21,4.72 -25.9605,9.61019 -40.0005,21.93017 -3.98,3.48998 -6.8092,5.41876 -10.4692,9.46874 l -26.25,27.10106 -11.6997,11.6997 -17.2998,14.27929 -27.2812,23.68066 -15.2798,12.54931 -31.7197,21.1201 c -16.8,11.28998 -43.66,27.26061 -63,32.62059 -6.13,1.7 -14.68,2.16065 -21,2.91065 l -31.9995,2.71875 -34.0004,2.09033 -12,0.90966 h -34.0005 c -6.42,-0.08 -13.7695,-1.97886 -19.9995,-3.58886 l -22.9995,-4.31103 c -1.9968,-0.53902 -4.1024,-1.14186 -5.1816,-2.49099 -0.6827,-0.85347 -0.9546,-2.00559 -0.5284,-3.62913 0.83,-3.18 9.3816,-14.9456 14.6895,-21.97997 15.0095,-19.89176 37.2418,-34.70383 48.3706,-56.99997 4.4641,-8.94361 18.0793,-24.93999 6.6093,-29.24999 -4.06,-1.51998 -7.9696,0.89078 -10.6596,3.78076 -3.85,4.13 -8.6518,13.87972 -13.481,20.46972 -18.7879,25.63803 -39.708,49.65068 -60.1391,73.99948 -2.5201,3.0033 -4.3907,7.44013 -7.7007,8.89013 -2.74,1.21 -7.929,-0.43973 -10.979,-0.96973 l -26.0009,-4.33007 c -19.68,-3.16 -22.2597,-6.62992 -37.9995,-10.8999 l -31.9995,-5.15039 c -14.12,-2.52 -21.4705,-5.36004 -37.0005,-5.54004 l -19.0005,1.00049 c -12.99,0.02 -26.13,0.39981 -39,2.29981 l -18,4.27001 -33.999,4.80029 -6,2.00977 -12,3.13037 -26.9999,9.60937 -24,7.75048 -12,6.22998 c -4.13,1.85 -11.5109,2.80972 -12.6709,7.9497 -1.67,7.41 6.7604,7.72102 11.6704,6.56104 l 21,-8.78027 21,-6.3501 c 18.2398,-5.94998 45.0004,-15.45046 64.0004,-15.48046 h 4.9995 l 25.9995,-1.99951 h 32.001 l 22.9995,1.9292 h 7.0005 c 9.13,0.89 15.25,5.04042 24,7.1704 l 30,6.37061 33.999,12.18896 14.0009,2.54003 c 3.3,0.63 14.589,1.40029 15.419,5.03027 0.42,1.82 -1.289,4.27977 -2.209,5.75977 l -8.7407,12.01025 -20.9605,28.00047 -11.4389,17.99999 -15.1304,25.9995 -6.7207,10.00048 -7.9687,12.8291 -8.0713,9.16992 -10.2891,13.00048 -6.7207,10.00048 c -6,8.73998 -12.8196,17.8796 -19.8296,25.82958 -12.69,14.37996 -49.9198,44.54079 -66.3398,55.82077 l -13.0898,9.21972 -16.9102,10.87939 c -5.21,3.94 -12.8804,11.14047 -19.0004,13.23047 -9.84,3.36998 -22.1802,-0.69049 -25.9702,-10.98047 -1.12,-3.04998 -1.0198,-6.77902 -1.0298,-9.99902 v -17.00096 c 0.17,-12.18998 12.2905,-21.2105 18.5405,-31.00048 l 16.3799,-24.99901 10.1294,-17.99999 6.3002,-10.00048 14.3306,-26.99999 c 2.5,-4 9.1002,-13.97999 9.9302,-17.99999 2.04,-9.91998 -7.3004,-19.12946 -17.6104,-18.20946 -10.73,0.94998 -13.1906,10.4497 -22.0004,9.4497 -16.56,-1.88 -27.69,-4.88977 -45,-1.77979 -13.77,2.48 -20.92,6.95027 -33,13.51025 -8.05,4.38 -16.4502,7.99978 -23.7202,13.77978 l -7.2788,7.24951 c -19.02,19.20996 -30.5406,40.67952 -41.6206,64.99948 l -2.7305,7.00048 c -3.63,8.19998 -7.6791,16.2405 -9.8891,25.00048 l -1.021,6.99902 c -1.08,5.76998 -2.6293,4.4105 -2.7393,13.00048 -0.13,10.80998 2.24,22.79993 12,29.18993 7.59,4.96998 15.34,5.85105 24,7.08105 7.53,1.07 14.6905,0.51881 22.0005,-1.72119 15.76,-4.85 33.199,-18.50007 45.999,-28.56005 4.96,-3.90998 8.471,-7.75925 14.001,-10.98925 0.34,7.31998 0.8588,17.52001 4.0488,23.99999 3.48,7.04998 11.1907,15.13974 18.9507,17.23974 3.18,0.86 4.9095,0.63017 7.9995,0.93017 6.59,0.63 11.7,0.32936 18,-2.16064 l 10.0004,-5.51953 14.1695,-9.56982 16.831,-10.48974 37.1689,-29.91063 25.4107,-20.09911 10.33,-9.42041 c 6.06,-6.18998 11.9499,-14.42048 19.0899,-19.00048 -8.97,33.76994 -18.7895,86.35066 22.0005,103.70064 4.7898,2.03998 11.7895,3.29931 16.9995,3.54931 24.9398,1.21 35.9399,-19.84945 48.9799,-37.41941 4.04,-5.45 4.3395,-8.36058 10.0195,-12.83056 -1.45,7.44998 -3.1294,16.57 -1.1294,23.99998 5.46,20.37996 30.7299,32.68091 50.1299,23.46093 13.05,-6.19998 27.9605,-22.90135 37.7505,-33.63133 5.02,-5.49 12.2895,-17.68958 19.2495,-19.82958 0.5,3.74 1.3203,9.54048 2.5503,13.00048 -4.9103,100.79272 131.6595,-4.91868 138.3603,-32.00096 0.23,-3.63 -0.2502,-14.23919 -5.9502,-13.17919 -4.33,0.81 -8.9099,7.23995 -11.6499,10.43993 -45.6795,43.93891 -116.6385,114.68497 -102.2109,18.73974 v -9 l 7.7109,-26.99998 14.77,-43.00047 4.6289,-9.99902 c 3.47,-6.10998 8.8108,-11.71018 3.0908,-18.93016 -5.08,-6.13 -9.8002,-0.22 -18.3002,0 h -16.0005 c -11.37,0.07 -15.329,4.42945 -24.999,7.18945 -16.72,4.76998 -30.01,8.61071 -45,17.97069 -12.53,7.81998 -24.1098,19.99905 -34.0898,30.76903 l -13.3506,14.72021 -13.0108,13.70067 -14.3994,15.32958 -17.8798,20.24999 c -3.26,3.8 -10.6498,13.02058 -15.2798,14.33056 -3.37,0.95 -6.2298,-0.39001 -8.9898,-2.24999 -10.0798,-6.78 -9.1199,-16.45058 -8.9999,-27.08056 0.22,-18.77996 4.8497,-37.0405 10.0297,-55.00046 3.05,-10.59998 1.7892,-13.35952 7.4092,-25.9995 l 7.771,-13.00048 2.6602,-5.71875 9.0996,-15.28124 8.6997,-17.99999 17.9794,-28.9995 17.4405,-31.9995 c 2.16,-3.76998 4.4597,-9.94005 8.9297,-11.31005 3.0998,-0.96 17.7699,3.2101 21.9799,4.1001 l 11.001,1.59961 6.999,2.23974 c 9.18,2.16 24.6305,4.35963 34.0005,4.36963 h 28.9995 l 25.0005,-1.99951 h 10.9995 l 11.0009,-0.90967 19.9995,-1.25977 10.0005,-1.54101 c 9.68,-1.21 19.4995,-1.70996 28.9995,-4.20996 17.27,-4.54998 41.49,-17.32979 57,-26.52977 37.48,-22.21996 66.7503,-46.22971 98.6103,-75.67965 l 27.8291,-27.03954 11.5605,-11.85058 21.0908,-23.02001 c 4.32,-4.40998 9.3397,-10.16947 15.9097,-9.95947 l -23.4009,53.99998 -13.459,39.999 -27.8305,56.00095 -18.3706,44.99998 -2.5986,8.99999 -12.4805,34.9995 -8.8008,38.99998 v 9 c -0.3,4.64998 -1.2899,6.01952 -0.6299,10.9995 1.49,11.24998 4.7208,18.84048 17.5708,19.00048 2.57,0.03 5.5495,0.0998 7.9995,-0.70019 4.57,-1.48 8.2406,-4.7402 12.0806,-7.4502 9.16,-6.46998 16.9595,-13.99879 24.9595,-21.75877 13.95,-13.53998 27.0101,-28.27035 38.3701,-44.09031 l 7.1704,-12 17.1899,-28.00047 7.5396,-13.99951 12.4101,-20.99999 c 10.36,-18.21996 15.8204,-27.70066 28.4004,-44.91062 5.46,-7.48998 11.0799,-14.83935 20.8799,-15.08935 -2.08,11.11998 -13.901,29.40903 -19.191,39.99901 -7.41,14.80996 -9.8998,23.01 -13.3198,38.99998 l -2.4492,11.99999 v 8.00097 c -0.38,3.7 -1.2204,6.00904 -0.9404,9.99902 0.27,4.04 1.9806,9.84 4.9306,12.75 1.78,1.76998 3.6593,2.29056 5.9693,3.08056 7.37,2.51 13.2395,2.1101 19.9995,-2.12988 8.96,-5.63 13.0202,-13.82077 18.2402,-22.53075 l 4.6699,-6.20947 6.6709,-10.95996 c 8.78,-15.16996 17.0404,-32.55951 33.4204,-40.99949 0.61,9.88998 -6.12,17.80006 -4.79,31.04002 2,19.92998 28.1897,22.98008 42.5097,14.6001 3.46,-2.03 15.7903,-15.05015 18.5303,-18.64013 4.61,-6.04 7.009,-9.94099 13.749,-14.00097 l 1.5308,11.99999 c 2.5,10.89998 10.7892,21.19114 22.4692,21.91112 13.97,0.86 23.2907,-11.27098 31.5307,-20.75096 2.26,-2.61 10.6093,-10.94894 13.4693,-11.66894 4.35,-1.1 6.2201,4.6389 10.1001,8.3789 4.35,4.19 9.0303,5.34033 14.9003,5.09033 4.29,-0.19 10.2597,-1.78916 13.9995,-3.88916 2.49,-1.4 7.3005,-4.94084 10.0005,-5.11084 3.44,-0.22 5.1905,2.72073 10.0005,4.24073 3.88,1.21998 12.8495,1.99947 16.9995,1.70947 l 31.0005,-7.08984 c 6.98,-0.55 9.0795,1.15962 13.9995,1.36962 h 9 c 9.74,-0.29998 17.22,-0.20015 27,-1.91015 l 10.0005,-2.80957 28.9995,-2.46972 h 61.9994 l 30,1.98925 c 8.96,0.2 16.0904,-1.76025 21.9404,-9.01025 6.34,-7.83998 1.3306,-16.75981 -7.9394,-18.56981 -5.47,-1.07 -7.6405,2.53984 -19.0005,2.58984 h -74.9999 l -22.0005,1.00049 c -21.33,0.25 -32.709,7.83951 -45.999,7.99951 l -31.0005,-2.54004 -19.9995,2.96045 c -5.06,1.11998 -10.8105,3.16011 -16.0005,2.37011 -9.59,-1.47 -7.9605,-11.56976 -19.0005,-11.75976 -7.74,-0.13 -11.0195,3.19047 -16.9995,7.23047 -1.98,1.34 -6.6395,4.54871 -8.9795,4.44873 -3.8398,-0.17 -5.6899,-5.42951 -9.2299,-8.97949 -5.73,-5.74 -12.9307,-7.33057 -20.7905,-5.10059 -9.56,2.72 -20.2007,12.32085 -26.9107,19.36083 -4.37,4.58 -8.2988,10.24928 -14.0888,13.00928 l -3.5611,-20.99999 -6.4394,-10.99951 c -6.26,0.21 -9.0805,-2.84947 -16.0005,-0.95947 -25.08,6.86998 -28.8095,25.74996 -46.9995,37.95994 l 2.9605,-26.00096 c -0.12,-3.81 -1.0414,-10.65959 -3.1114,-13.82959 -7.82,-11.96998 -25.8991,-8.08947 -35.8491,-1.47949 -16.71,11.08998 -27.3899,29.09959 -36.6899,46.30955 -4.83,8.93998 -13.4905,26.09951 -21.3105,31.99949 0.05,-15.46996 4.9703,-36.92999 11.3803,-50.99997 7.03,-15.39998 20.5606,-38.79952 19.5806,-55.99948 -0.59,-10.30998 -9.7506,-11.18926 -17.9604,-10.98926 -4.12,0.11 -11.0296,1.6993 -14.5796,3.7793 -6.09,3.57998 -18.6312,17.24044 -23.1812,23.21044 l -16.0693,24.99901 -5.1196,10.00048 -15.3604,22.9995 -21.6005,35.83006 -27.3897,36.16991 -8.4199,8.99999 c -8.23,9.33998 -20.0907,21.29075 -29.4507,29.51073 -5.63,4.94998 -9.4096,9.31023 -16.8296,11.49023 -3.9798,-30.15994 7.83,-54.95051 18.46,-82.00045 9.05,-23.04996 20.1908,-45.17968 32.0508,-66.90964 l 23.3789,-43.08982 19.56,-49.00046 c 6.23,-15.23998 22.18,-45.02001 26.02,-59.99997 2.36,-9.21998 4.1012,-18.59046 -2.0288,-26.96044 -3.2119,-4.39312 -7.9529,-5.81729 -12.9433,-5.84619 z M 2616.0192,475.0631 c 6.4822,0.003 12.7221,0.12867 19.4121,1.01367 -0.31,12.26998 -12.2913,27.91 -17.8813,38.99998 l -11.6895,27.99901 -14.1503,21.83056 c -5.38,6.74998 -28.8398,27.9409 -36.2798,33.67088 -3.38,2.6 -25.4595,15.26872 -28.9995,16.44872 -3.82,1.26 -8,1.58985 -12,1.83985 -3.68,0.23 -4.4495,0.01 -7.9995,-0.52002 -7.55,-1.13 -8.89,-2.48857 -9,-10.26855 v -6 c 0.18,-14.65998 11.03,-35.10146 18,-48.00144 l 5.5093,-10.99951 c 6.77,-12.26998 21.6403,-31.52045 32.3203,-40.46043 5.05,-4.21998 14.2894,-8.91864 20.1694,-12.34862 11.21,-6.53 22.73,-13.17092 36,-13.19092 2.24,-0.002 4.4281,-0.0143 6.5888,-0.0132 z m 376.412,21.31347 c 2.89,-0.26 11.1289,-0.33045 12.9389,2.28955 1.54,2.23999 -0.609,6.21966 -1.519,8.40966 -3.34,8.05999 -7.3397,15.71097 -12.1597,23.00097 -6.94,10.47999 -13.9707,21.66946 -22.4707,30.95945 l -10.79,9.13037 -20.4199,20.99999 c -7.79,8.36999 -9.8501,10.25049 -18.5801,17.50048 -2.94,2.44 -6.1005,5.57992 -10.0005,6.16992 -7.11,1.07 -9.879,-3.43026 -9.999,-9.76025 -0.34,-18.56998 3.619,-25.31 10.749,-41.99998 9.71,-22.72998 31.4205,-38.03067 51.2505,-51.20066 9.33,-6.19999 19.8605,-13.3295 31.0005,-15.4995 z"
     sodipodi:nodetypes="scccccccccccccccccccaaccaacccccccccccccccccccccccccccccccccccccccccccccccccccccccsccccccccccsccccccccccccccccccccccccccccccccccccccccccccccccccccccccccccccccccccccccccccccccccccccccccccccccccccccccscccccccccccccccccccccccccccccccccccccccccccccccccccccccccccccccssccccccsccccccccssccccccccccscc" />
  <path
     id="path111939"
     style="fill:#000000;stroke:#000000"
     d="m 2336.4305,69.185861 c -79.6568,3.651088 -109.2277,106.884839 -81.9096,162.880289 11.9434,22.66025 43.9168,30.05946 68.9091,34.01072 -65.4741,93.86117 -127.8658,188.6319 -194.3187,269.15905 -4.54,2.78 -11.7009,-6.25921 -14.6909,-9.19921 -10.31,-10.08997 -24.8205,-23.30024 -39.9902,-24.76024 -14.9,-1.44 -25.7693,11.02031 -32.0493,22.80028 -12.25,22.98994 -29.34,59.80953 -29.94,85.99947 -0.11,5.07997 0.4402,12.01097 1.3902,17.00097 0.78,4.07997 1.6794,8.27863 3.9594,11.8286 6.78,10.54997 20.3402,9.53043 30.6402,5.44043 17.5697,-6.97997 39.7001,-29.35028 52.9101,-43.28025 l 16.0898,-17.81982 c 2.17,-2.19997 4.6007,-5.03003 7.9307,-3.29003 16.2282,18.71637 26.5917,33.07669 44.5591,49.12058 19.4884,18.53272 29.0653,25.05453 52.5102,31.58934 32.5792,11.42448 57.2518,7.38218 88.9994,-1.8794 49.6446,-12.64318 87.5044,-50.43951 111.041,-82.71089 48.638,-66.84564 92.7477,-139.99908 125.6191,-211.99941 17.619,-36.9335 18.3413,-60.15498 18.3413,-98.99995 l -4.9668,-34.90657 c 56.8444,-3.77109 117.4273,-24.45521 168.2842,-30.63525 25.7435,-2.91564 51.9668,-3.94209 77.7167,-1.08319 l -59.7826,-18.59899 c -44.2816,-0.28831 -82.0422,7.92898 -123.0143,12.36358 -24.1852,2.61768 -55.3448,9.32094 -72.4933,8.40756 -31.8303,-45.55942 -88.0191,-102.597535 -148.7443,-125.276539 -21.1482,-7.46709 -44.7715,-9.14 -67.0005,-6.16113 z m 11.0508,14.954582 c 62.6055,-9.608821 153.0797,57.757227 180.4373,117.892297 -42.8675,0.22791 -83.2183,6.19301 -123.4886,16.30348 -11.2785,2.83164 -21.3143,9.53867 -32.6407,12.31205 11.6463,-28.90722 39.6709,-52.59078 52.4307,-76.57179 4.4647,-8.42115 15.0833,-20.28519 10.0503,-26.77 -3.81,-4.74999 -9.1689,-2.60043 -13.1689,0.55957 -7.68,6.05999 -11.3814,16.09094 -16.2114,24.21092 -4.6423,9.90054 -8.6866,15.64568 -13.7593,22.9995 -13.9847,20.27355 -45.7998,57.97995 -45.7998,57.97995 -22.3534,-1.26662 -52.9618,-4.15083 -63.5319,-24.19575 -18.6771,-35.41858 -24.8822,-96.26671 28.131,-116.783667 12.7371,-4.354453 25.9262,-7.740508 37.5513,-7.93656 z m 188.841,147.353457 c 1.3374,2.16041 4.8089,17.3858 5.1291,19.58293 3.2314,28.98975 4.6512,54.72411 -3.9507,79.99947 -35.9883,105.74663 -112.692,233.54501 -191.0697,275.29968 -33.4911,17.10146 -67.3705,29.66843 -101.9999,24.8203 -28.6899,-5.0859 -44.5872,-18.16619 -63.9199,-36.08055 -8.9943,-12.7368 -34.1472,-27.34753 -36.3399,-42.03953 l 202.56,-282.25914 c 64.3733,-24.91021 125.7077,-34.717 189.591,-39.32316 z m -463.8916,294.57211 c 10.1199,2.95999 20.9903,16.06107 27.5903,24.10106 2.15,2.61 7.2993,7.12011 6.7793,10.62011 -0.41,2.79 -10.2899,13.57951 -12.5699,16.2495 -9.8399,11.59999 -21.169,22.15996 -32.789,31.95995 -4.64,3.91 -12.0312,10.36003 -17.9912,11.54003 -7.14,1.41 -6.069,-5.66045 -6.019,-10.46044 0.09,-7.72999 2.5102,-14.66049 4.5102,-22.00048 4.02,-14.71998 9.6198,-29.04902 15.7998,-42.999 2.99,-6.74999 6.1695,-18.28073 14.6895,-19.01073 z"
     sodipodi:nodetypes="ccccccccccccccccccccccccacccccacccccacaccccaccccccccccccscsc" />
  <path
     id="path119477"
     style="font-variation-settings:normal;opacity:1;vector-effect:none;fill:#000000;fill-opacity:1;stroke:#ffffff;stroke-width:30;stroke-linecap:butt;stroke-linejoin:miter;stroke-miterlimit:4;stroke-dasharray:none;stroke-dashoffset:0;stroke-opacity:1;-inkscape-stroke:none;paint-order:markers stroke fill;stop-color:#000000;stop-opacity:1"
     d="m 957.2604,555.68674 c -9.61258,8.22585 -20.47911,14.68965 -30.82909,22.13963 -8.53998,6.14 -29.71,21.98048 -38.99998,24.25048 4.30998,-13.64998 23.53965,-34.45054 32.63963,-46.2905 9.76998,-12.71998 8.9894,-16.99997 22.35936,-32.70995 5.45,-6.40998 18.66023,-24.59914 11.49023,-32.61912 -3.96998,-4.6 -10.07962,-3.79 -14.11962,0 l -19.68017,27.61961 -11.58983,19.9995 -19.22021,25.9995 -8.55029,12 c -11.33998,14.41996 -29.5291,33.48007 -44.32908,44.08005 -8.88998,6.36 -23.07049,12.05021 -34.00047,13.22021 -5.60998,0.6 -12.9504,-0.93931 -16.1704,-6.02929 -2.32,-3.68 -1.87959,-20.25001 -1.82959,-25.27001 0.16,-13.22998 6.95007,-45.44097 10.56005,-59.00095 3.03,-11.97996 7.31,-25.35967 0,-36.90965 -7.45998,-12.01996 -32.92957,-3.81894 -42.55955,1.83106 -17.10996,10.04998 -38.9414,25.84951 -52.44138,40.24949 -11.07229,9.26244 -24.29972,29.79248 -36.1743,36.05711 -0.82528,4.87689 -2.26792,12.79378 -3.69579,17.57958 -1.21951,4.08738 -5.09783,11.33545 -8.27344,16.93652 l 10.75488,-13.32275 23.62938,-22.87059 c 18.43603,-22.47131 40.72368,-42.08336 57.20066,-52.11033 9.18758,-6.38556 25.02503,-17.24724 35.10936,-15.77929 4.87998,0.86 4.12033,7.64935 3.59033,11.33935 -7.00798,26.54402 -16.47494,56.58761 -16.70068,80.00094 -1.48783,13.22211 0.0156,27.93672 8.37011,36.32957 6.72,6.48998 16.30989,7.36992 24.62987,10.66992 l -9.99901,5.32909 c 0,0 -22.56787,18.34045 -34.2202,27.03076 -13.06812,9.7462 -26.83359,18.52727 -40.00047,28.13963 -19.00611,13.87523 -38.09711,27.68096 -56.27927,42.61961 -39.6555,32.58136 -78.90631,65.89358 -115.00043,102.38081 -15.20828,15.37391 -29.90381,31.42188 -42.61082,48.9199 -16.97812,23.37949 -38.63106,46.0813 -44.53687,74.36519 -3.01597,14.44395 -15.53321,34.47478 5.64675,43.90478 16.69327,4.6758 31.51363,0.568 47.00095,-4.9995 28.62973,-10.3642 46.35114,-24.58826 69.99899,-37.50001 21.53052,-14.66214 36.20326,-26.01854 55.09129,-42.39109 13.91996,-11.92998 27.32927,-24.06986 39.48923,-37.83982 41.96609,-60.57299 98.15868,-120.35516 131.45062,-178.95988 l 18.24902,-30.90965 c 4.47114,-7.60463 9.93846,-14.38955 15.51122,-21.18017 3.96,-5.65998 14.77952,-20.5103 19.2495,-24.8203 5.67,-5.45998 31.21045,-21.28967 38.96043,-25.42967 11.92998,-6.35998 22.83903,-14.33993 33.99901,-21.91991 11.43998,-7.76998 26.90049,-17.63009 37.00047,-26.83007 24.14907,-24.54547 48.4828,-43.50337 68.9604,-68.66012 11.9858,-14.72459 23.6521,-31.64885 31.1602,-47.67918 -25.2103,31.03164 -70.18634,71.31259 -110.291,99.03951 z M 815.43136,669.07717 c -6.50488,13.72762 -14.97621,25.56713 -23.14012,38.99998 -6.43906,11.80541 -14.84186,23.93556 -21.20068,33.999 -35.45153,46.39217 -70.9938,96.24086 -116.31,139.65081 -18.08998,20.53998 -50.54057,45.50931 -73.35055,61.29929 -25.29454,14.42932 -51.54225,34.28768 -75.99898,44.14012 -4.8303,1.58038 -23.74886,8.67441 -27.0205,5.2998 -1.46417,-64.89643 108.51643,-156.73512 150.87004,-190.75919 l 12.15088,-10.70067 26.40965,-24.36913 c 11.82978,-8.99294 23.90572,-17.64978 35.24999,-27.25048 19.18523,-14.51245 32.98246,-23.47734 51.50974,-37.29051 l 37.82957,-22.72997 c 7.92999,-4.22999 13.95097,-8.88905 23.00096,-10.28905 z"
     sodipodi:nodetypes="ccccccccccccccccccccsccccccccccaaaaaaccccccccccscacccccccccccccccc" />
  <path
     id="path111949"
     style="font-variation-settings:normal;opacity:1;vector-effect:none;fill:#000000;fill-opacity:1;stroke:#ffffff;stroke-width:30;stroke-linecap:butt;stroke-linejoin:miter;stroke-miterlimit:4;stroke-dasharray:none;stroke-dashoffset:0;stroke-opacity:1;-inkscape-stroke:none;paint-order:markers stroke fill;stop-color:#000000;stop-opacity:1"
     d="m 584.58235,357.64714 c -6.35301,-0.12035 -10.71042,5.45043 -13.56884,10.45312 -10.55421,18.51683 -19.15081,38.21519 -31.75193,55.51169 -18.30022,22.40497 -28.30609,29.18111 -61.20115,60.46726 -32.89506,31.28615 -81.90549,77.00202 -133.66554,105.04295 -51.76005,28.04094 -103.47496,14.76013 -133.64487,12.07857 -5.13355,0.82396 -9.56908,4.7602 -10.70801,9.87744 -0.89602,3.65613 -0.12631,8.85612 3.85694,10.32568 10.00025,0.1922 9.03728,-10.45768 20.69823,-6.28418 9.78562,3.37496 19.68788,7.1402 30.16258,7.43701 34.71126,0.34428 72.65835,-9.16049 101.54146,-25.42967 15.22073,-8.49561 28.9566,-19.31336 42.85105,-29.76415 13.40383,-10.34891 26.83574,-20.70036 39.35301,-32.12401 9.02008,-7.56895 18.61691,-14.44159 27.28563,-22.42967 10.63218,-9.27529 21.02135,-19.16262 33.64012,-25.7329 -7.1706,10.78887 -12.58072,22.0431 -19.10209,32.92847 -4.98073,8.31376 -9.4918,18.96058 -15.29209,24.72829 -3.21557,3.19751 -9.49239,6.82765 -17.7035,13.03925 C 320.48053,684.2992 184.94202,775.97511 77.882823,906.18776 43.55797,946.6408 13.817624,988.05074 15.044053,1015.1932 c 0.718831,15.9087 34.165292,4.7318 47.624977,-3.7793 93.62657,-59.20401 272.38648,-248.37185 393.63995,-398.27909 1.83699,-3.96948 5.46324,1.56113 3.55957,3.84082 0.91698,11.48717 2.0148,23.206 6.30761,34.00194 4.07379,8.55503 12.11147,14.17445 19.96581,18.96532 6.66215,4.83098 14.04304,9.24641 22.39013,10.14257 14.85474,2.68005 30.05163,2.31291 45.05125,1.37549 18.1707,-2.4022 34.34129,-11.72013 49.97165,-20.6997 15.99317,-8.85423 31.65805,-19.48956 42.31346,-34.645 7.58616,-10.7194 14.02996,-22.73897 15.57421,-35.96629 1.36833,-9.25274 3.97092,-18.25156 6.16406,-27.32372 3.0517,-15.03025 1.97199,-30.57059 -0.46875,-45.60203 -2.43633,-10.72835 -7.04234,-20.86135 -12.49365,-30.37059 -4.77917,-7.53926 -12.60259,-12.95936 -21.27977,-14.98241 -7.96627,-2.17484 -16.32182,-3.32086 -24.57128,-2.60596 -10.53126,1.69456 -19.94426,7.03486 -29.97655,10.36084 -17.5646,6.76722 -34.82473,14.3023 -51.87888,22.26268 -3.07211,0.89046 -6.21926,2.43739 -9.47314,1.94385 -0.22244,-2.43008 3.54829,-5.29675 4.86035,-7.89551 12.04194,-16.62825 23.67244,-33.72858 32.14159,-52.5029 9.98807,-20.21422 20.62369,-40.1217 32.21775,-59.46237 3.28468,-5.88324 6.18214,-12.57566 5.29102,-19.45605 -0.8096,-3.44956 -3.67455,-6.70365 -7.39307,-6.86865 z m 26.84911,129.64887 c 2.8,-0.22 6.22,0.62066 9,1.18066 6.15999,1.24 10.7088,2.49916 15.5288,6.88916 10.06296,13.04014 11.47118,30.04985 11.47118,45.71042 -2.75229,32.99001 -15.4822,55.73871 -42.00144,73.48971 -18.31049,15.86598 -49.59926,29.0956 -83.99996,27.51122 -7.28999,0.08 -16.08993,1.16923 -21.68993,-4.53076 -4.90811,-8.33703 -4.54673,-18.9925 -5.77002,-28.41942 -1.27999,-8.83999 -1.29955,-14.83124 -10.53954,-19.78124 -3.12,-1.67 -7.50951,-2.72953 -10.99951,-3.26953 8.44733,-15.97172 13.54277,-39.33961 26.21923,-52.17917 13.97733,-8.70812 30.27258,-12.39704 45.20066,-19.20995 16.75213,-8.21535 29.96305,-13.01555 46.57908,-19.79003 7.36372,-1.73831 14.84976,-7.01771 21.00145,-7.60107 z m -158.0009,77.78023 C 379.67463,723.06122 156.53242,908.01564 36.968359,1014.2601 23.841575,1029.9602 14.355864,1009.0358 23.140241,997.67369 95.429366,858.69125 320.57927,674.75836 453.43056,565.07624 Z"
     sodipodi:nodetypes="ccczzccccccccccasccsscccccccccccccccccccccccccccccccccccccccc" />
  <g
     id="g104362"
     transform="translate(108.8834,40.563535)">
    <path
       style="fill:#0000ff;stroke:#0000ff;stroke-width:2.25;stroke-linecap:butt;stroke-linejoin:miter;stroke-opacity:1"
       d="M 937.69784,962.99315 1487.9447,347.4776"
       id="path103574" />
    <path
       style="fill:#0000ff;stroke:#0000ff;stroke-width:2.25;stroke-linecap:butt;stroke-linejoin:miter;stroke-opacity:1"
       d="M 847.6979,617.99338 1397.9447,2.4778093"
       id="path103574-6" />
    <path
       style="fill:#0000ff;stroke:#0000ff;stroke-width:2.25;stroke-linecap:butt;stroke-linejoin:miter;stroke-opacity:1"
       d="M 376.69822,962.99315 926.94476,347.4776"
       id="path103574-7" />
    <path
       style="fill:#0000ff;stroke:#0000ff;stroke-width:2.25;stroke-linecap:butt;stroke-linejoin:miter;stroke-opacity:1"
       d="M -82.301518,962.99315 467.94506,347.4776"
       id="path103574-3" />
    <path
       style="fill:#0000ff;stroke:#0000ff;stroke-width:2.25;stroke-linecap:butt;stroke-linejoin:miter;stroke-opacity:1"
       d="M 2043.7908,619.43482 2594.0377,3.919238"
       id="path103574-1" />
    <path
       style="fill:#0000ff;stroke:#0000ff;stroke-width:2.25;stroke-linecap:butt;stroke-linejoin:miter;stroke-opacity:1"
       d="M 2592.0448,619.413 3142.2917,3.8974279"
       id="path103574-2" />
    <path
       style="fill:#0000ff;stroke:#00ff00;stroke-width:2.25;stroke-linecap:butt;stroke-linejoin:miter;stroke-opacity:1"
       d="m 1942.3731,627.66703 485.781,-667.568625"
       id="path103574-2-5"
       inkscape:transform-center-x="-165.91346"
       inkscape:transform-center-y="-226.87381" />
    <path
       style="fill:#0000ff;stroke:#00ff00;stroke-width:2.25;stroke-linecap:butt;stroke-linejoin:miter;stroke-opacity:1"
       d="m 2602.3731,627.66703 485.781,-667.568625"
       id="path103574-2-5-9"
       inkscape:transform-center-x="-165.91346"
       inkscape:transform-center-y="-226.87381" />
  </g>
  <path
     id="Selection"
     style="fill:#000000;stroke:#ffffff;stroke-width:30;paint-order:markers stroke fill"
     d="m 1405.4306,37.395837 c -68.0073,39.749445 -68.5577,124.838313 -84.2798,190.680083 l -98.3701,122.29095 -143.2677,164.83528 c -3.5286,-2.88029 -7.3017,-10.15588 -9.7117,-13.12588 -4.7199,-5.83992 -11.6101,-16.85999 -13.9101,-23.99999 -1.6999,-5.28992 -3.8303,-18.31042 -6.3003,-21.94042 -4.2799,-6.30992 -11.6207,-3.1397 -13.9907,1.0503 -1.75,3.08992 -2.1595,12.16069 -2.1695,15.89061 v 6 c -0.12,9.90992 -2.98,9.21917 -3,21.99901 l 1.1602,35.00096 c 0.47,4.36 3.6511,12.67733 4.8458,21.8833 -30.3867,26.3171 -60.82017,59.08152 -94.00637,78.34712 -7.08992,3.93 -13.66909,10.28953 -21.99901,10.76953 -1.56,-4.67992 -5.72072,-6.4508 -9.49072,-2.5708 -2.46992,2.55 -4.2799,13.34089 -2.47998,16.42089 2.55,4.41 6.82951,2.45891 10.24951,0.70899 l 24.72069,-12.54931 c 40.55621,-18.21375 72.47328,-54.34491 94.49088,-80.94352 5.005,22.42382 7.7328,47.68338 20.4597,64.84342 18.1948,24.53249 45.7696,43.87707 75.0498,52.57029 15.0265,4.46161 31.8504,2.43519 46.9994,-1.59082 58.9535,-13.79761 87.0425,-57.49075 118.2292,-98.22194 22.0712,-6.66975 45.6136,-11.57136 67.7708,-19.66716 -7.827,10.3259 -18.4501,17.9991 -27.9097,26.7495 -10.8542,10.04041 -22.2412,19.49463 -33.0908,29.54002 -5.2657,4.87538 -10.2526,10.04663 -15.5288,14.91064 -24.5726,19.44366 -45.6271,43.6509 -66.1801,63.93014 -62.6382,65.67029 -140.0323,132.61042 -196.212,197.61225 -21.7863,24.61559 -61.89006,78.44975 -44.32907,105.83052 11.7178,15.01 35.09047,19.8395 54.07897,18.4102 27.4382,-2.0655 50.5672,-22.4693 73.2803,-38.00101 31.6173,-21.62051 58.9684,-49.03534 86.2997,-75.87008 21.1483,-20.76414 41.0458,-42.83922 59.9209,-65.68942 23.5792,-28.545 45.3151,-63.49193 66.4504,-89.00293 9.9792,-12.52992 27.3098,-40.05047 35.8198,-54.42039 5.718,-11.03244 11.837,-19.40182 18.7705,-29.99998 5.1383,-4.56377 15.9849,-24.19459 22.3198,-26.44042 2.5,-0.74 5.2502,3.02102 6.9302,4.54102 3.9292,3.56992 11.3198,8.07968 16.3798,9.67968 l 13.9995,3.12011 20.001,7.31983 c 8.49,2.43992 33.12,5.77027 42,5.78027 h 30.999 c 9.56,-0.01 18.7805,-3.21979 28.0005,-5.52979 l 28.0898,-7.74023 c 11.07,-4.55992 21.4611,-10.84087 30.9111,-18.15087 3,-2.33 12.3697,-10.02902 15.9097,-9.99902 2.77,0.01 10.2898,8.56004 13.0898,10.79004 7.26,5.77992 15.7705,8.51939 25.0005,8.62939 3.05,0.03 7.069,0.13965 9.999,-0.53027 8.82,-1.99 25.15,-11.99988 33,-17.12988 l 19.831,-13.91894 36.4292,-35.42137 c 11.53,-11.21992 27.1107,-26.51006 41.7407,-32.99998 -4.31,9.44992 -13.75,16.96104 -19.56,26.00096 -7.42,11.52992 -9.601,26.40055 -9.441,40.00047 0.15,12.52992 6.0414,21.74921 14.6206,30.36913 15.63,15.69984 37.9394,27.35987 60.3794,27.62987 16.2,0.19 32.26,-1.2792 48,-5.09912 31.4706,-10.60763 68.5823,-27.92859 94.7504,-45.90086 l 14.2603,-11.62939 c 34.4974,-28.56449 61.0585,-63.97933 89.329,-94.65083 3.08,-3.45 12.3906,-12.49921 12.3706,-16.69921 -45.3859,36.79999 -91.0595,80.50158 -115.7094,97.20991 -34.5633,23.37725 -78.5169,41.89454 -122.9999,42.77049 h -23.001 c -2.78,0 -5.2495,0.07 -7.9995,-0.52002 -10.82,-2.31 -29.7296,-12.51103 -34.8296,-22.48095 -1.59,-3.09992 -2.1309,-9.46909 -2.1709,-12.99901 -0.13,-11.72992 3.1208,-16.18105 9.3208,-26.00097 11.01,-17.43984 27.3692,-32.46006 47.6792,-38.08006 l 11.001,-2.74951 c 5.2789,-1.89104 15.4254,1.20515 28.9114,-0.17028 l 1.9408,-22.69787 c -8.3185,-5.28174 -22.3822,-4.29176 -30.8522,-4.30176 h -16.0005 c -14.38,0.02 -27.5405,7.40998 -40.0005,13.8999 -23.0892,12.00992 -36.0594,21.5194 -56.1694,37.81932 l -18.5507,14.93993 -33.2798,30.18016 -9.999,6.66064 -20.001,11.44043 c -3.84,1.99 -8.589,4.77914 -12.999,4.86914 -4.61,0.09 -8.4612,-1.84037 -11.9912,-4.63037 -1.65,-1.32 -4.0296,-3.37906 -5.0596,-5.20898 -2.56,-4.55 1.6608,-6.77072 5.0508,-8.91064 10.41,-6.57 17.23,-10.83925 27,-18.65917 11.01,-8.81 22.9204,-17.54054 32.9296,-27.48046 l 21.3897,-24.91991 c 10.49,-12.71992 13.1795,-17.41014 18.2695,-32.99998 1.18,-3.61 2.5199,-6.00049 2.8799,-10.00049 1.51,-16.56984 -17.1895,-22.2801 -30.4687,-19.6201 -12.28,2.45992 -26.3208,17.97092 -34.9908,26.63084 l -25.4296,26.98973 c -6.8,7.16 -19.0606,20.54958 -23.6206,28.9995 -5.13,9.47992 -9.2292,19.72007 -12.3692,29.99999 -1.61,5.28992 -1.9104,12.80015 -4.9804,16.91015 -3.44,4.58992 -14.2705,11.17034 -19.5205,15.36034 l -8.0991,6.75 c -15.83,11.02992 -31.7615,14.97034 -49.9907,19.86034 -11.04,2.96 -21.45,6.18906 -33,4.11914 5.31,-7.06 16.3306,-11.99007 23.9106,-17.99999 15.05,-11.91992 31.929,-27.1495 42.249,-43.41942 4.32,-6.81992 8.0502,-19.52014 8.6602,-27.58006 l -1.8194,-32.99999 c -0.15,-12.15984 -3.01,-25.85973 -15,-31.48973 -16.1492,-7.57992 -34.6204,-7.99984 -52.0004,-6.33984 l -22.9995,2.82862 h -8.001 c 20.6,-29.09984 36.8407,-58.4602 53.2207,-89.99996 2.58,-4.96 16.9773,-25.84121 19.9062,-41.52253 0.7313,-3.91524 -4.6843,-7.37268 -9.4343,-7.33268 -6.58,0.05 -10.2407,5.3398 -14.2507,10.09972 -16.12,19.13984 -24.9514,44.65622 -45.4414,62.60606 l -18,15.3208 -21.0395,20.75975 c -27.1091,20.56802 -50.8936,49.68221 -79.2204,68.15425 -22.1484,13.27206 -16.2351,16.51928 -72.6014,33.27913 47.5042,-52.98927 49.2116,-160.89418 48.0934,-219.04012 2.078,-57.32338 -6.4851,-85.05115 -3.6427,-137.48397 1.2731,-4.76077 5.4435,-7.07263 9.5415,-12.83933 41.4833,-44.11205 90.5101,-87.33359 105.763,-145.513363 -0.01,-16.529869 -16.6739,-17.347212 -28.8939,-18.647201 -10.9775,-0.982118 -23.4148,-1.882362 -32.9999,1.479491 z m 45.7807,24.020494 c -16.982,36.862494 -67.3272,95.053399 -98.61,133.298149 -0.5411,-40.86837 23.6966,-111.721722 57.8288,-134.897755 7.366,-12.12264 41.4725,-11.987003 40.7812,1.599606 z M 1321.8041,238.43101 c -0.9159,35.25004 12.5258,75.56224 14.9504,109.80856 6.4176,80.24198 -7.8575,175.14787 -62.7627,227.27255 -42.1397,3.97938 -80.9579,1.90053 -112.8259,-7.21491 -28.6398,-8.19191 -62.411,-37.69996 -75.2959,-48.13182 81.5004,-87.47715 161.2364,-188.51722 235.9341,-281.73438 z m 158.6264,234.64576 c -3.41,6.39 -8.6292,11.63992 -12.9492,17.41992 -7.59,10.18998 -7.4108,14.90926 -20.0508,20.73924 -3.6,1.66 -5.03,2.32034 -9,2.84034 3.89,-8.07 19.9808,-21.49921 27.0908,-28.17919 4.35,-4.09 9.6692,-10.30031 14.9092,-12.82031 z m 256.557,26.58251 c 0.6577,-0.0269 1.2853,0.11158 1.8428,0.49658 2.38,1.64 0.75,5.83041 0,7.92041 -3.62,10.17999 -4.6895,11.53951 -11.1695,19.9995 -15.5199,20.29998 -27.0894,32.11134 -47.2294,47.88132 -6.38,5 -14.3205,12.56865 -22.0005,15.11865 0.51,-9.15999 7.2499,-19.75999 12.6299,-26.99999 l 43.5102,-46.07956 c 5.1,-5.73 10.5204,-11.37 16.8604,-15.75 1.35,-0.93 3.5831,-2.50628 5.5561,-2.58691 z m -686.6979,5.21338 c 3.8553,8.21316 11.8844,14.95447 18.1893,21.19527 l -17.8522,21.30195 c -0.9827,-5.55356 -5.0609,-33.09034 -0.3371,-42.49722 z m 487.5642,10.26855 c 0.5027,-0.004 1.0081,-0.003 1.5161,0.006 6.0961,0.10171 12.5251,1.09869 18.0601,2.65869 2.67,0.75 6.5108,1.6105 8.4008,3.7705 2.11,2.4 2.5601,10.25 2.6001,13.5 0.14,12.46994 1.6997,32.30049 -4.6303,43.00046 -10.43,17.65994 -31.0906,34.14982 -48.3706,45.04979 -9.46,5.95997 -15.47,10.9297 -27,10.9497 h -22.9995 c -7.09,-0.09 -14.03,-1.9191 -21,-3.0791 -3.73,-0.62 -7.8596,-0.8801 -10.8896,-3.3501 -3.51,-2.86 -4.2903,-6.74031 -6.2403,-10.57031 -1.43,-2.80997 -3.6302,-5.72002 -3.5302,-8.99999 0.1,-3.3 5.7608,-12.60051 7.6508,-16.00048 l 9.2989,-15.27978 12.7705,-22.71972 14.0507,-20.99999 c 5.07,-7.64997 6.2297,-13.44962 16.8897,-13.36962 l 13.9995,-0.63135 c 8.5,-0.02 16.6305,-1.60998 25.0005,-2.70995 l 9.999,-1.00928 c 1.4344,-0.13313 2.9157,-0.20279 4.4238,-0.21533 z m -463.0576,16.74765 c 0,0 10.6,12.57472 16.8049,17.91786 9.4635,8.14913 25.4591,18.51003 30.8291,21.29003 19.61,10.14994 41.5018,14.35007 63,18.41014 13.1532,2.48421 26.6153,3.39183 40.0004,3.56983 13.0805,-1.38653 23.6199,-1.09955 36.9837,-0.54057 -20.1454,21.28135 -37.3977,38.01344 -55.6707,46.71242 -16.3367,9.47648 -35.1085,19.04694 -53.9223,17.39501 -28.7376,-2.52327 -57.0407,-19.19677 -76.4751,-40.51609 -11.9323,-13.08997 -15.4908,-32.04365 -20.436,-49.05174 -0.8415,-2.89418 -3.2305,-9.10497 -2.7205,-11.08491 z m 351.6343,14.1869 c -0.78,6.73996 -3.9903,9.21003 -7.1103,14.99999 -3.29,6.08 -14.7189,26.46095 -18.6489,30.73095 -2.94,3.18996 -6.8407,3.97956 -10.9307,9.26952 -4.15,5.38 -1.6405,8.56 -5.7905,15 l -31.04,40.00046 -28.7593,43.99949 c -22.7259,31.34573 -45.0937,66.88845 -70.4779,98.16575 -33.4765,41.24829 -67.9318,82.22104 -107.5628,117.59737 -29.1381,26.00989 -60.596,54.1272 -94.85,68.79929 -10.7487,4.21225 -31.5543,10.62802 -39.1303,0.0103 -14.14899,-66.61179 72.8542,-131.15234 110.2001,-168.42912 65.6797,-68.35876 131.7937,-136.68595 198.8502,-193.65277 23.2392,-19.65117 51.5237,-37.37159 72.2504,-55.82078 8.11,-6.22996 23.31,-18.7304 33,-20.6704 z"
     sodipodi:nodetypes="ccccccccccccccccccccsccccaaccccaaaaccccccccccccccccccccccccccccccccscccccccccccccccccccccccccsccccccccccccccccccsccccccccccccccccccccsccccccccsccccccccscccccscccccccccccccccccccsccasscccssccccccccccaaccccccc" />
</svg>
